<svg width="80" height="81" viewBox="0 0 80 81" fill="none" xmlns="http://www.w3.org/2000/svg">
<path d="M5.33333 66.6887H8V64.022H5.33333C3.86033 64.022 2.66667 62.8284 2.66667 61.3554V8.02205C2.66667 6.54905 3.86033 5.35539 5.33333 5.35539H64C65.473 5.35539 66.6667 6.54905 66.6667 8.02205V10.6887H69.3333V8.02205C69.3333 5.07672 66.9453 2.68872 64 2.68872H5.33333C2.388 2.68872 0 5.07672 0 8.02205V61.3554C0 64.3007 2.388 66.6887 5.33333 66.6887Z" fill="#FF4D4D"/>
<path d="M5.33337 8.02271H8.00004V10.6894H5.33337V8.02271Z" fill="#FF4D4D"/>
<path d="M10.6666 8.02271H13.3333V10.6894H10.6666V8.02271Z" fill="#FF4D4D"/>
<path d="M16 8.02271H18.6667V10.6894H16V8.02271Z" fill="#FF4D4D"/>
<path d="M10.6666 72.0214C10.6666 74.9667 13.0546 77.3547 16 77.3547H74.6666C77.612 77.3547 80 74.9667 80 72.0214V18.6881C80 15.7427 77.612 13.3547 74.6666 13.3547H16C13.0546 13.3547 10.6666 15.7427 10.6666 18.6881V72.0214ZM13.3333 18.6881C13.3333 17.2151 14.527 16.0214 16 16.0214H74.6666C76.1396 16.0214 77.3333 17.2151 77.3333 18.6881V72.0214C77.3333 73.4944 76.1396 74.6881 74.6666 74.6881H16C14.527 74.6881 13.3333 73.4944 13.3333 72.0214V18.6881Z" fill="#FF4D4D"/>
<path d="M16 18.6887H18.6667V21.3554H16V18.6887Z" fill="#FF4D4D"/>
<path d="M21.3333 18.6887H24V21.3554H21.3333V18.6887Z" fill="#FF4D4D"/>
<path d="M26.6667 18.6887H29.3333V21.3554H26.6667V18.6887Z" fill="#FF4D4D"/>
<path d="M16 24.0227H74.6667V26.6894H16V24.0227Z" fill="#FF4D4D"/>
<path d="M16 30.6887H26.6667V33.3554H16V30.6887Z" fill="#FF4D4D"/>
<path d="M16 36.0227H24V38.6894H16V36.0227Z" fill="#FF4D4D"/>
<path d="M45.3333 41.3547C40.1783 41.3547 36 45.5331 36 50.6881C36 55.8431 40.1783 60.0214 45.3333 60.0214C50.4883 60.0214 54.6667 55.8431 54.6667 50.6881C54.6607 45.5361 50.4853 41.3607 45.3333 41.3547ZM45.3333 57.3547C41.6517 57.3547 38.6667 54.3697 38.6667 50.6881C38.6667 47.0064 41.6517 44.0214 45.3333 44.0214C49.015 44.0214 52 47.0064 52 50.6881C51.9953 54.3681 49.0133 57.3501 45.3333 57.3547Z" fill="#FF4D4D"/>
<path d="M66.6667 46.6881C66.6667 45.9514 66.07 45.3547 65.3333 45.3547H61.8093C61.527 44.4787 61.175 43.6264 60.7547 42.8081L63.2467 40.3177C63.7667 39.7967 63.7667 38.9531 63.2467 38.4321L57.5893 32.7747C57.0683 32.2547 56.2247 32.2547 55.7037 32.7747L53.2133 35.2654C52.3937 34.8467 51.542 34.4947 50.6667 34.2121V30.6881C50.6667 29.9514 50.07 29.3547 49.3333 29.3547H41.3333C40.5967 29.3547 40 29.9514 40 30.6881V34.2121C39.1247 34.4947 38.273 34.8467 37.4533 35.2654L34.963 32.7747C34.442 32.2547 33.5983 32.2547 33.0773 32.7747L27.42 38.4321C26.9 38.9531 26.9 39.7967 27.42 40.3177L29.9107 42.8081C29.7993 43.0264 29.692 43.2454 29.5907 43.4667C29.3093 44.0814 29.0647 44.7114 28.8573 45.3547H25.3333C24.5967 45.3547 24 45.9514 24 46.6881V54.6881C24 55.4247 24.5967 56.0214 25.3333 56.0214H28.8573C29.1397 56.8974 29.4917 57.7497 29.912 58.5681L27.42 61.0584C26.9 61.5794 26.9 62.4231 27.42 62.9441L33.0773 68.6014C33.5983 69.1214 34.442 69.1214 34.963 68.6014L37.4533 66.1107C38.273 66.5294 39.1247 66.8814 40 67.1641V70.6881C40 71.4247 40.5967 72.0214 41.3333 72.0214H49.3333C50.07 72.0214 50.6667 71.4247 50.6667 70.6881V67.1641C51.542 66.8814 52.3937 66.5294 53.2133 66.1107L55.7037 68.6014C56.2247 69.1214 57.0683 69.1214 57.5893 68.6014L63.2467 62.9441C63.7667 62.4231 63.7667 61.5794 63.2467 61.0584L60.7547 58.5681C61.175 57.7497 61.527 56.8974 61.8093 56.0214H65.3333C66.07 56.0214 66.6667 55.4247 66.6667 54.6881V46.6881ZM64 53.3547H60.808C60.2 53.3547 59.6693 53.7664 59.5173 54.3547C59.1767 55.6781 58.6517 56.9481 57.9573 58.1254C57.6483 58.6487 57.7333 59.3154 58.1627 59.7454L60.417 62.0011L56.6463 65.7734L54.3907 63.5174C53.9603 63.0874 53.2937 63.0027 52.77 63.3121C51.5927 64.0064 50.3233 64.5317 49 64.8721C48.4117 65.0241 48 65.5547 48 66.1627V69.3547H42.6667V66.1627C42.6667 65.5547 42.255 65.0241 41.6667 64.8721C40.3433 64.5317 39.074 64.0064 37.8967 63.3121C37.373 63.0027 36.7063 63.0874 36.276 63.5174L34.0203 65.7734L30.2497 62.0011L32.504 59.7454C32.9333 59.3154 33.0183 58.6487 32.7093 58.1254C32.015 56.9481 31.49 55.6781 31.1493 54.3547C30.9973 53.7664 30.4667 53.3547 29.8587 53.3547H26.6667V48.0214H29.8587C30.4667 48.0214 30.9973 47.6097 31.1493 47.0214C31.3647 46.1821 31.655 45.3647 32.0163 44.5777C32.2247 44.1214 32.456 43.6764 32.7093 43.2444C33.0173 42.7207 32.933 42.0551 32.504 41.6254L30.2497 39.3697L34.0203 35.5974L36.276 37.8541C36.7063 38.2841 37.373 38.3681 37.8967 38.0584C39.074 37.3647 40.3433 36.8387 41.6667 36.4984C42.255 36.3467 42.6667 35.8154 42.6667 35.2084V32.0214H48V35.2134C48 35.8214 48.4117 36.3521 49 36.5041C50.3233 36.8444 51.5927 37.3697 52.77 38.0641C53.2937 38.3734 53.9603 38.2887 54.3907 37.8587L56.6463 35.6027L60.417 39.3751L58.1627 41.6307C57.7333 42.0607 57.6483 42.7274 57.9573 43.2507C58.6517 44.4281 59.1767 45.6981 59.5173 47.0214C59.6693 47.6097 60.2 48.0214 60.808 48.0214H64V53.3547Z" fill="#FF4D4D"/>
<path d="M66.6666 69.3547H74.6666V72.0214H66.6666V69.3547Z" fill="#FF4D4D"/>
</svg>
