<svg width="80" height="81" viewBox="0 0 80 81" fill="none" xmlns="http://www.w3.org/2000/svg">
<g clip-path="url(#clip0_1_412)">
<path d="M34.6842 20.9278C34.6842 20.9156 34.6878 20.9047 34.6878 20.8926C34.6878 18.1492 33.5853 15.6617 31.8049 13.84C31.7819 13.8194 31.7516 13.8121 31.7285 13.7891C31.703 13.7636 31.6958 13.7297 31.6715 13.7042C29.8474 11.9056 27.3454 10.791 24.5862 10.791C19.0169 10.791 14.4859 15.3221 14.4859 20.8926C14.4859 26.4631 19.0169 30.9942 24.5862 30.9942C30.1409 30.9942 34.6599 26.4885 34.6854 20.9387C34.6854 20.9363 34.6842 20.9326 34.6842 20.9278ZM32.2585 21.0175C32.1906 25.1896 28.768 28.5697 24.5862 28.5697C20.3547 28.5697 16.9115 25.1265 16.9115 20.8938C16.9115 16.6611 20.3547 13.2179 24.5862 13.2179C26.5413 13.2179 28.3933 13.9528 29.8232 15.293C29.8765 15.3609 29.9408 15.4337 30.0136 15.5052L30.2792 15.7587C31.5235 17.1341 32.2221 18.8842 32.2597 20.7313L32.2585 21.0175Z" fill="#FF4D4D"/>
<path d="M72.0973 47.7596H69.1441C68.6092 45.0902 67.5637 42.5603 66.0623 40.2862L68.141 38.2075C68.9427 37.4058 69.383 36.3397 69.383 35.2057C69.383 34.0705 68.9427 33.0057 68.141 32.204C67.3394 31.4023 66.2733 30.9609 65.1381 30.9609C64.0041 30.9609 62.9405 31.4023 62.1364 32.204L60.0709 34.2706C57.7957 32.7558 55.2609 31.7019 52.5866 31.1585V28.2466C52.5866 25.9058 50.6837 24.0017 48.3418 24.0017C45.9998 24.0017 44.0969 25.9058 44.0969 28.2466V31.1585C42.8889 31.4048 41.7149 31.7674 40.5761 32.2173C40.4645 31.275 40.0619 30.3981 39.3802 29.7165L38.5919 28.9257C39.2711 27.7445 39.7987 26.4807 40.1589 25.1696H41.265C43.6069 25.1696 45.5098 23.2655 45.5098 20.9248C45.5098 18.584 43.6069 16.6799 41.265 16.6799H40.1783C39.8217 15.3604 39.2941 14.0869 38.615 12.8971L39.3802 12.1318C40.1831 11.3302 40.6234 10.2641 40.6234 9.13011C40.6234 7.99612 40.1807 6.93005 39.3778 6.12959C38.5761 5.32792 37.5101 4.88645 36.3773 4.88645C35.2421 4.88645 34.176 5.32913 33.3744 6.1308L32.6212 6.88396C31.429 6.19872 30.1531 5.66751 28.8287 5.30487V4.24487C28.8287 1.90413 26.9246 0 24.5838 0C22.2431 0 20.339 1.90413 20.339 4.24487V5.30487C19.0146 5.66629 17.7387 6.19751 16.5465 6.88396L15.7909 6.12716C14.9892 5.3267 13.9232 4.88645 12.7904 4.88645C11.6564 4.88645 10.5903 5.32792 9.78745 6.1308C8.13438 7.7863 8.13438 10.4788 9.78866 12.1343L10.5527 12.8983C9.87356 14.0881 9.34841 15.3591 8.99063 16.6799H7.90394C5.5632 16.6799 3.65907 18.584 3.65907 20.9248C3.65907 23.2655 5.5632 25.1696 7.90394 25.1696H9.01125C9.37267 26.4819 9.89903 27.7445 10.5782 28.9257L9.78866 29.7153C8.13438 31.3696 8.13316 34.062 9.78866 35.7188C10.5903 36.5204 11.6564 36.9619 12.7904 36.9619C13.9232 36.9619 14.9892 36.5216 15.7921 35.72L16.5926 34.9195C17.7714 35.5926 19.0316 36.1141 20.339 36.4719V37.6023C20.339 39.943 22.2431 41.8471 24.5838 41.8471C26.6469 41.8471 28.3666 40.3663 28.7462 38.4124L30.6188 40.2838C29.1174 42.5578 28.0743 45.0878 27.5383 47.756H24.5826C22.2419 47.756 20.3378 49.6589 20.3378 52.0009C20.3378 54.3428 22.2419 56.2457 24.5826 56.2457H27.554C28.101 58.8994 29.1513 61.4184 30.6576 63.6791L28.5413 65.7955C27.7384 66.5971 27.2969 67.6644 27.2969 68.7996C27.2969 69.9336 27.7384 70.9985 28.5401 71.8013C29.3417 72.6018 30.4078 73.0445 31.5418 73.0445C32.6758 73.0445 33.7406 72.6018 34.5435 71.8013L36.672 69.6716C38.9327 71.1646 41.4469 72.2064 44.0957 72.7437V75.7563C44.0957 78.0971 45.9986 80.0012 48.3406 80.0012C50.6825 80.0012 52.5854 78.0971 52.5854 75.7563V72.7437C55.2354 72.2064 57.7472 71.1646 60.0079 69.6716L62.1364 71.8013C62.9381 72.6018 64.0041 73.0445 65.1393 73.0445C66.2733 73.0445 67.3369 72.6018 68.1398 71.8026C68.9415 71.0009 69.3842 69.9336 69.3842 68.7996C69.3842 67.6644 68.9415 66.5996 68.141 65.7967L66.0247 63.6791C67.5298 61.4184 68.5813 58.9006 69.1295 56.2445H72.0985C74.4404 56.2445 76.3433 54.3404 76.3433 51.9996C76.3421 49.6637 74.438 47.7596 72.0973 47.7596ZM26.4055 34.4974V37.6059C26.4055 38.6113 25.5917 39.4251 24.5863 39.4251C23.5808 39.4251 22.767 38.6113 22.767 37.6059V34.4974C20.3475 34.1748 18.1316 33.224 16.2785 31.8098L14.0796 34.0075C13.7243 34.3616 13.2585 34.5399 12.7928 34.5399C12.3271 34.5399 11.8614 34.3628 11.506 34.0075C10.7965 33.2967 10.7965 32.1446 11.506 31.4339L13.6988 29.2411C12.2749 27.3891 11.3156 25.1696 10.9869 22.7464H7.90637C6.90094 22.7464 6.08714 21.9326 6.08714 20.9272C6.08714 19.9218 6.90094 19.108 7.90637 19.108H10.9748C11.2926 16.6751 12.247 14.4459 13.6673 12.5842L11.5036 10.4218C10.7929 9.71105 10.7929 8.55887 11.5036 7.84816C12.2143 7.13744 13.3665 7.13866 14.0772 7.84816L16.236 10.0058C18.0977 8.57463 20.3293 7.61166 22.7658 7.28662V4.24851C22.7658 3.24308 23.5796 2.42928 24.5851 2.42928C25.5905 2.42928 26.4043 3.24308 26.4043 4.24851V7.28662C28.8408 7.61166 31.0749 8.57463 32.9353 10.0058L35.0905 7.84937C35.8012 7.13744 36.9534 7.13866 37.6629 7.84816C38.3736 8.55766 38.3736 9.70983 37.6641 10.4205L35.5016 12.5842C36.9219 14.4471 37.8763 16.6763 38.1953 19.1092H41.2625C42.268 19.1092 43.0818 19.923 43.0818 20.9284C43.0818 21.9338 42.268 22.7476 41.2625 22.7476H38.1832C37.8545 25.1709 36.894 27.3903 35.4713 29.2423L37.6641 31.4351C38.3748 32.1446 38.3748 33.298 37.6641 34.0075C37.3088 34.3628 36.843 34.5399 36.3773 34.5399C35.9116 34.5399 35.4459 34.3628 35.0905 34.0075L32.8917 31.8086C31.0421 33.224 28.8251 34.1748 26.4055 34.4974ZM72.0985 53.8237H67.0459C66.6675 57.638 65.1466 61.12 62.8289 63.9204L66.4249 67.5164C67.1356 68.226 67.1356 69.3793 66.4249 70.0888C66.0696 70.4442 65.6026 70.6201 65.1381 70.6201C64.6712 70.6201 64.2054 70.443 63.8501 70.0888L60.248 66.4868C57.444 68.7875 53.9656 70.2938 50.1586 70.6601V75.76C50.1586 76.7654 49.3448 77.5792 48.3393 77.5792C47.3339 77.5792 46.5201 76.7654 46.5201 75.76V70.6601C42.7119 70.2926 39.2335 68.7875 36.4295 66.4868L32.8274 70.0888C32.472 70.4442 32.0063 70.6201 31.5406 70.6201C31.0749 70.6201 30.6091 70.443 30.2538 70.0888C29.5431 69.3793 29.5431 68.226 30.2538 67.5164L33.8498 63.9204C31.5333 61.1188 30.0124 57.6368 29.634 53.8249H24.5814C23.576 53.8249 22.7622 53.0111 22.7622 52.0057C22.7622 51.0003 23.576 50.1865 24.5814 50.1865H29.6292C29.9882 46.36 31.4945 42.8623 33.8061 40.0473L30.2526 36.4937C29.5419 35.783 29.5419 34.6309 30.2526 33.9201C30.9633 33.2094 32.1155 33.2106 32.8262 33.9201L36.3737 37.4664C39.1862 35.139 42.6876 33.6169 46.5201 33.247V28.2478C46.5201 27.2424 47.3339 26.4286 48.3393 26.4286C49.3448 26.4286 50.1586 27.2424 50.1586 28.2478V33.247C53.9911 33.6169 57.4913 35.139 60.305 37.4664L63.8501 33.9201C64.5608 33.2094 65.713 33.2094 66.4237 33.9201C67.1344 34.6296 67.1344 35.7818 66.4237 36.4925L62.8726 40.0449C65.1842 42.861 66.6881 46.3576 67.0483 50.184H72.0936C73.0991 50.184 73.9129 50.9978 73.9129 52.0033C73.9165 53.0099 73.1027 53.8237 72.0985 53.8237Z" fill="#FF4D4D"/>
<path d="M59.0582 41.2892C59.0231 41.2528 59.0097 41.2055 58.9782 41.1667C56.2396 38.4658 52.4848 36.7945 48.3418 36.7945C39.9818 36.7945 33.1815 43.5948 33.1815 51.9547C33.1815 60.3147 39.9818 67.115 48.3418 67.115C56.6799 67.115 63.4632 60.3487 63.4984 52.0214C63.4984 52.0166 63.4972 52.0105 63.4972 52.0057C63.4972 51.9911 63.5008 51.979 63.5008 51.9632C63.5008 51.9608 63.5008 51.9572 63.5008 51.9547C63.5008 47.836 61.8429 44.0969 59.1662 41.362C59.1334 41.3329 59.091 41.3207 59.0582 41.2892ZM61.0727 52.11C60.989 59.057 55.2985 64.6893 48.3418 64.6893C41.3195 64.6893 35.6072 58.977 35.6072 51.9547C35.6072 44.9325 41.3195 39.2201 48.3418 39.2201C51.597 39.2201 54.6787 40.4475 57.0547 42.6815L57.0971 42.7579L57.3421 43.0029C57.4282 43.0878 57.5143 43.1606 57.5919 43.2237C59.8053 45.5644 61.0363 48.5964 61.0752 51.7995L61.0727 52.11Z" fill="#FF4D4D"/>
</g>
<defs>
<clipPath id="clip0_1_412">
<rect width="80" height="80.0012" fill="white"/>
</clipPath>
</defs>
</svg>
