<svg width="41" height="40" viewBox="0 0 41 40" fill="none" xmlns="http://www.w3.org/2000/svg">
<path d="M4.46056 2.83032C3.96965 2.83032 3.57571 3.22426 3.57571 3.71517C3.57571 4.20608 3.96965 4.60002 4.46056 4.60002C4.95147 4.60002 5.34541 4.20608 5.34541 3.71517C5.34541 3.22426 4.94541 2.83032 4.46056 2.83032Z" fill="#FF4D4D"/>
<path d="M7.64239 2.83032C7.15148 2.83032 6.75754 3.22426 6.75754 3.71517C6.75754 4.20608 7.15148 4.60002 7.64239 4.60002C8.1333 4.60002 8.52723 4.20608 8.52723 3.71517C8.52723 3.22426 8.1333 2.83032 7.64239 2.83032Z" fill="#FF4D4D"/>
<path d="M10.8242 2.83032C10.3333 2.83032 9.93936 3.22426 9.93936 3.71517C9.93936 4.20608 10.3333 4.60002 10.8242 4.60002C11.3151 4.60002 11.7091 4.20608 11.7091 3.71517C11.7091 3.22426 11.3151 2.83032 10.8242 2.83032Z" fill="#FF4D4D"/>
<path d="M24.806 14.1152C17.6666 14.1152 11.8606 19.9213 11.8606 27.0607C11.8606 28.6486 12.1454 30.2061 12.7151 31.6849C12.7818 31.8607 12.9515 31.9758 13.1333 31.9758H36.4727C36.6606 31.9758 36.8242 31.8607 36.8909 31.6849C37.4545 30.2061 37.7454 28.6486 37.7454 27.0607C37.7454 19.9213 31.9394 14.1152 24.806 14.1152ZM36.1575 31.0667H13.4484C13.2787 30.5819 13.1454 30.0849 13.0363 29.5819L13.8848 29.4304C14.1272 29.388 14.2909 29.1516 14.2484 28.9092C14.206 28.6667 13.9697 28.5031 13.7272 28.5455L12.8787 28.6971C12.806 28.1577 12.7575 27.6122 12.7575 27.0607C12.7575 26.5031 12.806 25.9577 12.8848 25.4243L13.7333 25.5758C13.7575 25.5819 13.7878 25.5819 13.8121 25.5819C14.0242 25.5819 14.2181 25.4304 14.2545 25.2122C14.2969 24.9698 14.1333 24.7334 13.8909 24.691L13.0363 24.5395C13.2727 23.4486 13.6545 22.4122 14.1636 21.4486L14.9151 21.8849C14.9878 21.9274 15.0666 21.9455 15.1394 21.9455C15.2969 21.9455 15.4484 21.8667 15.5272 21.7213C15.6545 21.5031 15.5757 21.2304 15.3636 21.1031L14.6181 20.6728C15.206 19.7395 15.9212 18.8971 16.7333 18.1577L17.2848 18.8122C17.3757 18.9213 17.503 18.9758 17.6303 18.9758C17.7333 18.9758 17.8363 18.9395 17.9212 18.8728C18.1091 18.7152 18.1394 18.4304 17.9757 18.2364L17.4242 17.5758C18.2848 16.9031 19.2424 16.3395 20.2666 15.9213L20.5636 16.7395C20.6303 16.9213 20.806 17.0364 20.9878 17.0364C21.0363 17.0364 21.0909 17.0304 21.1394 17.0122C21.3757 16.9274 21.4909 16.6667 21.406 16.4364L21.1091 15.6183C22.1333 15.2849 23.2242 15.0971 24.3515 15.0546V15.9213C24.3515 16.1698 24.5515 16.3698 24.8 16.3698C25.0484 16.3698 25.2484 16.1698 25.2484 15.9213V15.0546C26.3757 15.0971 27.4606 15.2849 28.4909 15.6183L28.1939 16.4364C28.1091 16.6728 28.2303 16.9274 28.4606 17.0122C28.5091 17.0304 28.5636 17.0364 28.6121 17.0364C28.7939 17.0364 28.9697 16.9213 29.0363 16.7395L29.3333 15.9213C30.3575 16.3395 31.3151 16.9031 32.1757 17.5758L31.6242 18.2364C31.4666 18.4243 31.4909 18.7092 31.6787 18.8728C31.7636 18.9455 31.8666 18.9758 31.9697 18.9758C32.0969 18.9758 32.2242 18.9213 32.3151 18.8122L32.8666 18.1577C33.6787 18.8971 34.3939 19.7395 34.9818 20.6728L34.2424 21.091C34.0242 21.2183 33.9515 21.491 34.0788 21.7092C34.1636 21.8546 34.3151 21.9334 34.4666 21.9334C34.5454 21.9334 34.6181 21.9152 34.6909 21.8728L35.4424 21.4364C35.9515 22.4001 36.3333 23.4364 36.5697 24.5274L35.7151 24.6789C35.4727 24.7213 35.3091 24.9577 35.3515 25.2001C35.3878 25.4183 35.5818 25.5698 35.7939 25.5698C35.8181 25.5698 35.8484 25.5698 35.8727 25.5637L36.7212 25.4122C36.7939 25.9516 36.8484 26.491 36.8484 27.0486C36.8484 27.6001 36.8 28.1455 36.7272 28.6849L35.8787 28.5334C35.6363 28.491 35.4 28.6546 35.3575 28.8971C35.3151 29.1395 35.4788 29.3758 35.7212 29.4183L36.5697 29.5698C36.4606 30.0849 36.3272 30.5819 36.1575 31.0667Z" fill="#FF4D4D"/>
<path d="M30.4242 19.8304C30.2363 19.7213 30 19.7638 29.8606 19.9274L24.5454 26.0122C24.2121 26.2122 23.9272 26.485 23.7272 26.8304C23.4181 27.3698 23.3333 27.9941 23.4969 28.5941C23.6545 29.1941 24.0424 29.691 24.5757 30.0001C24.9394 30.2122 25.3394 30.3092 25.7333 30.3092C26.5394 30.3092 27.3212 29.891 27.7515 29.1456C27.9515 28.8001 28.0424 28.4122 28.0484 28.0244L30.6303 20.3638C30.6969 20.1638 30.6121 19.9395 30.4242 19.8304ZM26.9697 28.6971C26.5757 29.3759 25.7091 29.6122 25.0242 29.2244C24.6969 29.0365 24.4666 28.7335 24.3636 28.3638C24.2666 27.9941 24.3151 27.6122 24.503 27.285C24.6909 26.9577 24.9939 26.7213 25.3636 26.6244C25.4848 26.5941 25.6121 26.5759 25.7333 26.5759C25.9757 26.5759 26.2181 26.6425 26.4363 26.7638C26.7697 26.9516 27.006 27.2607 27.103 27.6244C27.206 27.988 27.1575 28.3638 26.9697 28.6971ZM27.5818 26.588C27.3939 26.3456 27.1636 26.1395 26.8909 25.9819C26.6181 25.8244 26.3272 25.7274 26.0242 25.691L29.0545 22.2244L27.5818 26.588Z" fill="#FF4D4D"/>
<path d="M27.2787 38.4788H14.0545C13.806 38.4788 13.606 38.6788 13.606 38.9272C13.606 39.1757 13.806 39.3757 14.0545 39.3757H27.2787C27.5272 39.3757 27.7272 39.1757 27.7272 38.9272C27.7272 38.6788 27.5272 38.4788 27.2787 38.4788Z" fill="#FF4D4D"/>
<path d="M39.2969 33.6728H38.9212L39.3272 32.6121C40.006 30.8364 40.3515 28.9637 40.3515 27.0606C40.3515 20.4303 36.1818 14.7637 30.3272 12.5334V6.37578C30.3272 6.36972 30.3272 6.36366 30.3272 6.36366V1.07275C30.3272 0.824268 30.1272 0.624268 29.8788 0.624268H1.43027C1.18178 0.624268 0.981781 0.824268 0.981781 1.07275V6.36972V6.37578V25.5758C0.981781 25.8243 1.18178 26.0243 1.43027 26.0243H9.29087C9.26663 26.3697 9.25451 26.7091 9.25451 27.0606C9.25451 28.9697 9.59996 30.8364 10.2788 32.6182L10.6848 33.6788H9.24239C8.3333 33.6788 7.58784 34.4182 7.58784 35.3334C7.58784 36.2425 8.32724 36.9879 9.24239 36.9879H30.8787C30.8848 36.9879 30.8909 36.9818 30.903 36.9818C31.006 36.9758 31.103 36.9334 31.1757 36.8667C31.1818 36.8606 31.1939 36.8606 31.2 36.8546C31.2848 36.7697 31.3333 36.6546 31.3333 36.5334C31.3333 36.4728 31.3212 36.4121 31.2969 36.3576C31.2909 36.3455 31.2788 36.3394 31.2727 36.3273C31.2545 36.2849 31.2303 36.2485 31.2 36.2182C31.1636 36.1818 31.1212 36.1515 31.0727 36.1334C31.0545 36.1273 31.0363 36.1212 31.0242 36.1152C30.9878 36.1031 30.9575 36.097 30.9212 36.097C30.9091 36.097 30.8969 36.0909 30.8848 36.0909H9.24845C8.83633 36.0909 8.49693 35.7515 8.49693 35.3394C8.49693 34.9273 8.83633 34.5879 9.24845 34.5879H11.3394H11.3454H38.2666H38.2727H39.303C39.5515 34.5879 39.7515 34.3879 39.7515 34.1394C39.7515 33.8909 39.5454 33.6728 39.2969 33.6728ZM1.88481 1.52124H29.4303V5.91518H1.88481V1.52124ZM1.88481 25.1212V6.81821H29.4242V12.2121C28.7394 12 28.0363 11.8364 27.3212 11.7152V9.36972C27.3212 9.12124 27.1212 8.92124 26.8727 8.92124H4.43633C4.18784 8.92124 3.98784 9.12124 3.98784 9.36972V22.5637C3.98784 22.8121 4.18784 23.0121 4.43633 23.0121H9.78784C9.60602 23.697 9.46663 24.4 9.37572 25.1152H1.88481V25.1212ZM10.0666 22.1152H4.89087V9.82427H26.4181V11.594C25.8848 11.5394 25.3454 11.5091 24.8 11.5091C17.9575 11.5091 12.1333 15.9576 10.0666 22.1152ZM11.1212 32.2849C10.4788 30.6121 10.1575 28.8485 10.1575 27.0546C10.1575 18.9818 16.7272 12.4121 24.806 12.4121C32.8848 12.4121 39.4545 18.9818 39.4545 27.0546C39.4545 28.8546 39.1272 30.6121 38.4909 32.2849L37.9636 33.6667H11.6606L11.1212 32.2849Z" fill="#FF4D4D"/>
<path d="M5.64237 33.6729H2.03631C1.78783 33.6729 1.58783 33.8729 1.58783 34.1213C1.58783 34.3698 1.78783 34.5698 2.03631 34.5698H5.64237C5.89086 34.5698 6.09086 34.3698 6.09086 34.1213C6.09086 33.8729 5.89086 33.6729 5.64237 33.6729Z" fill="#FF4D4D"/>
<path d="M33.606 36.2061C33.4363 36.0364 33.1333 36.0364 32.9697 36.2061C32.9272 36.2486 32.8909 36.297 32.8727 36.3516C32.8485 36.4061 32.8363 36.4667 32.8363 36.5273C32.8363 36.6486 32.8848 36.7637 32.9697 36.8486C33.0121 36.891 33.0606 36.9213 33.1151 36.9455C33.1697 36.9698 33.2303 36.9819 33.2909 36.9819C33.3515 36.9819 33.406 36.9698 33.4606 36.9455C33.5212 36.9213 33.5697 36.891 33.6121 36.8486C33.6969 36.7637 33.7454 36.6486 33.7454 36.5273C33.7454 36.4667 33.7333 36.4061 33.7091 36.3516C33.6788 36.297 33.6485 36.2486 33.606 36.2061Z" fill="#FF4D4D"/>
</svg>
