<svg width="80" height="80" viewBox="0 0 80 80" fill="none" xmlns="http://www.w3.org/2000/svg">
<g clip-path="url(#clip0_1_397)">
<path d="M49.7913 0C33.1354 0 19.5849 13.5134 19.5849 30.1238C19.5849 46.7342 33.1354 60.2476 49.7913 60.2476C66.4472 60.2476 79.9977 46.7342 79.9977 30.1238C79.9975 13.5134 66.447 0 49.7913 0ZM49.7913 55.5566C35.722 55.5566 24.2759 44.1476 24.2759 30.1238C24.2759 16.1 35.722 4.69096 49.7913 4.69096C63.8606 4.69096 75.3067 16.1002 75.3067 30.1238C75.3067 44.1474 63.8604 55.5566 49.7913 55.5566Z" fill="#FF4D4D"/>
<path d="M52.1368 14.9435H47.4458V32.4693H65.0097V27.7783H52.1368V14.9435Z" fill="#FF4D4D"/>
<path d="M2.24992 56.6836L14.794 44.175L18.1058 47.4962L5.56174 60.0048L2.24992 56.6836Z" fill="#FF4D4D"/>
<path d="M0.000289917 41.1855L11.5482 29.6702L14.86 32.9914L3.31211 44.5067L0.000289917 41.1855Z" fill="#FF4D4D"/>
<path d="M35.5851 76.6699L47.1332 65.1545L50.445 68.4757L38.8969 79.9911L35.5851 76.6699Z" fill="#FF4D4D"/>
<path d="M5.60693 71.0765L20.2667 56.4582L23.5785 59.7794L8.91875 74.3977L5.60693 71.0765Z" fill="#FF4D4D"/>
<path d="M20.0422 74.4258L32.5862 61.9171L35.898 65.2383L23.354 77.747L20.0422 74.4258Z" fill="#FF4D4D"/>
</g>
<defs>
<clipPath id="clip0_1_397">
<rect width="80" height="80" fill="white"/>
</clipPath>
</defs>
</svg>
