<svg width="40" height="40" viewBox="0 0 40 40" fill="none" xmlns="http://www.w3.org/2000/svg">
<g clip-path="url(#clip0_1_211)">
<path d="M38.8278 40H1.17187C0.524683 40 0 39.4753 0 38.8281C0 38.1809 0.524683 37.6562 1.17187 37.6562H38.8278C39.475 37.6562 39.9997 38.1809 39.9997 38.8281C39.9997 39.4753 39.475 40 38.8278 40Z" fill="#FF4D4D"/>
<path d="M8.2812 39.9999H3.59374C2.94656 39.9999 2.42188 39.4752 2.42188 38.828V30.2344C2.42188 29.1574 3.29804 28.2812 4.37498 28.2812H7.49996C8.5769 28.2812 9.45307 29.1574 9.45307 30.2344V38.828C9.45307 39.4752 8.92839 39.9999 8.2812 39.9999ZM4.76561 37.6562H7.10934V30.625H4.76561V37.6562ZM7.49996 30.625H7.50074H7.49996Z" fill="#FF4D4D"/>
<path d="M17.6561 39.9999H12.9686C12.3214 39.9999 11.7968 39.4752 11.7968 38.828V27.4219C11.7968 26.3449 12.6729 25.4688 13.7499 25.4688H16.8748C17.9518 25.4688 18.8279 26.3449 18.8279 27.4219V38.828C18.8279 39.4752 18.3033 39.9999 17.6561 39.9999ZM14.1405 37.6562H16.4842V27.8125H14.1405V37.6562ZM16.8748 27.8125H16.8756H16.8748Z" fill="#FF4D4D"/>
<path d="M27.031 40.0001H22.3436C21.6964 40.0001 21.1717 39.4754 21.1717 38.8282V23.1252C21.1717 22.0483 22.0479 21.1721 23.1248 21.1721H26.2498C27.3267 21.1721 28.2029 22.0483 28.2029 23.1252V38.8282C28.2029 39.4754 27.6782 40.0001 27.031 40.0001ZM23.5154 37.6564H25.8592V23.5159H23.5154V37.6564ZM26.2498 23.5159H26.2506H26.2498Z" fill="#FF4D4D"/>
<path d="M36.406 40H31.7185C31.0713 40 30.5466 39.4754 30.5466 38.8282V15.3127C30.5466 14.2358 31.4228 13.3596 32.4997 13.3596H35.6247C36.7017 13.3596 37.5778 14.2358 37.5778 15.3127V38.8282C37.5778 39.4754 37.0531 40 36.406 40ZM32.8904 37.6563H35.2341V15.7034H32.8904V37.6563ZM35.6247 15.7034H35.6255H35.6247Z" fill="#FF4D4D"/>
<path d="M1.17187 25.1801C0.524683 25.1801 0 24.6554 0 24.0082C0 23.361 0.524683 22.8364 1.17187 22.8364C8.06291 22.8364 15.5658 20.327 22.2983 15.7706C28.4921 11.5788 33.4276 6.08353 35.8391 0.693801C36.1035 0.103025 36.7967 -0.161661 37.3874 0.10279C37.9781 0.367085 38.2427 1.06028 37.9784 1.65106C35.3936 7.42812 30.1572 13.282 23.612 17.7116C16.4957 22.5277 8.52626 25.1801 1.17187 25.1801Z" fill="#FF4D4D"/>
<path d="M38.8271 9.50595C38.3096 9.50595 37.8362 9.16064 37.6959 8.63705L36.0802 2.60733L30.0505 4.22302C29.4251 4.39068 28.7828 4.01959 28.6153 3.39444C28.4478 2.76928 28.8187 2.12671 29.4439 1.95921L36.6055 0.0402427C37.2309 -0.127334 37.8733 0.243757 38.0408 0.86883L39.9597 8.03049C40.1272 8.65564 39.7563 9.29822 39.1311 9.46572C39.0295 9.4929 38.9275 9.50595 38.8271 9.50595Z" fill="#FF4D4D"/>
</g>
<defs>
<clipPath id="clip0_1_211">
<rect width="40" height="40" fill="white"/>
</clipPath>
</defs>
</svg>
