<svg width="14" height="19" viewBox="0 0 14 19" fill="none" xmlns="http://www.w3.org/2000/svg">
<path d="M7.5993 18.4327L13.4326 12.5993C13.5844 12.4422 13.6684 12.2317 13.6665 12.0132C13.6646 11.7947 13.577 11.5857 13.4225 11.4312C13.268 11.2767 13.059 11.189 12.8405 11.1871C12.622 11.1852 12.4115 11.2692 12.2543 11.421L7.84347 15.8318L7.84347 1.17684C7.84347 0.955825 7.75567 0.743864 7.59939 0.587584C7.44311 0.431303 7.23115 0.343506 7.01014 0.343506C6.78912 0.343506 6.57716 0.431303 6.42088 0.587584C6.2646 0.743864 6.1768 0.955825 6.1768 1.17684L6.1768 15.8318L1.76597 11.421C1.6891 11.3414 1.59715 11.2779 1.49547 11.2343C1.3938 11.1906 1.28445 11.1676 1.17381 11.1666C1.06316 11.1657 0.953424 11.1868 0.85101 11.2287C0.748596 11.2706 0.655553 11.3324 0.577309 11.4107C0.499064 11.4889 0.437186 11.582 0.395286 11.6844C0.353385 11.7868 0.3323 11.8965 0.333262 12.0072C0.334224 12.1178 0.357213 12.2272 0.400887 12.3288C0.444561 12.4305 0.508045 12.5225 0.587637 12.5993L6.42097 18.4327C6.57724 18.5889 6.78917 18.6767 7.01014 18.6767C7.23111 18.6767 7.44303 18.5889 7.5993 18.4327Z" fill="#111111"/>
</svg>
