<svg width="16" height="16" viewBox="0 0 16 16" fill="none" xmlns="http://www.w3.org/2000/svg">
<path d="M13.4633 12.9265H2.53672C2.18156 12.9261 1.84107 12.7848 1.58994 12.5336C1.33882 12.2825 1.19758 11.942 1.1972 11.5868V4.83867C1.19758 4.48351 1.33882 4.143 1.58994 3.89185C1.84107 3.64071 2.18156 3.49943 2.53672 3.49902H13.4633C13.8185 3.49943 14.159 3.64071 14.4101 3.89185C14.6612 4.143 14.8025 4.48351 14.8028 4.83867V11.5868C14.8025 11.942 14.6612 12.2825 14.4101 12.5336C14.159 12.7848 13.8185 12.9261 13.4633 12.9265ZM2.53672 4.01102C2.3173 4.01126 2.10694 4.09854 1.9518 4.25371C1.79665 4.40887 1.70941 4.61925 1.7092 4.83867V11.5868C1.70941 11.8063 1.79665 12.0166 1.9518 12.1718C2.10694 12.327 2.3173 12.4142 2.53672 12.4145H13.4633C13.6827 12.4142 13.8931 12.327 14.0482 12.1718C14.2034 12.0166 14.2906 11.8063 14.2908 11.5868V4.83867C14.2906 4.61925 14.2034 4.40887 14.0482 4.25371C13.8931 4.09854 13.6827 4.01126 13.4633 4.01102H2.53672Z" fill="white"/>
<path d="M8.00002 9.71934C7.93762 9.71937 7.87735 9.69662 7.83055 9.65534L1.66095 4.2092L1.99977 3.8252L8.00002 9.12235L14.0005 3.82584L14.3394 4.20984L8.16975 9.65598C8.12283 9.69714 8.06244 9.71969 8.00002 9.71934Z" fill="white"/>
<path d="M1.52173 12.1221L5.6664 7.39965L6.05143 7.73757L1.90675 12.46L1.52173 12.1221Z" fill="white"/>
<path d="M9.96167 7.73242L10.3467 7.3945L14.4915 12.117L14.1064 12.4549L9.96167 7.73242Z" fill="white"/>
</svg>
