<svg width="40" height="40" viewBox="0 0 40 40" fill="none" xmlns="http://www.w3.org/2000/svg">
<path d="M24.6234 10.7558L22.2248 10.752C19.5301 10.752 17.7886 12.5386 17.7886 15.304V17.4028H15.377C15.1686 17.4028 14.9998 17.5718 14.9998 17.7802V20.8211C14.9998 21.0295 15.1688 21.1983 15.377 21.1983H17.7886V28.8715C17.7886 29.0799 17.9574 29.2487 18.1658 29.2487H21.3123C21.5207 29.2487 21.6895 29.0797 21.6895 28.8715V21.1983H24.5093C24.7177 21.1983 24.8864 21.0295 24.8864 20.8211L24.8876 17.7802C24.8876 17.6801 24.8478 17.5843 24.7772 17.5135C24.7065 17.4427 24.6103 17.4028 24.5103 17.4028H21.6895V15.6236C21.6895 14.7685 21.8933 14.3344 23.0072 14.3344L24.623 14.3338C24.8312 14.3338 25 14.1648 25 13.9566V11.133C25 10.9249 24.8314 10.7562 24.6234 10.7558Z" fill="white"/>
</svg>
