<svg width="24" height="24" viewBox="0 0 24 24" fill="none" xmlns="http://www.w3.org/2000/svg">
<path d="M1.99597 8.5H11.496M5.99597 16.5H7.99597M10.496 16.5H14.496" stroke="black" stroke-width="1.5" stroke-miterlimit="10" stroke-linecap="round" stroke-linejoin="round"/>
<path d="M21.996 12.03V16.11C21.996 19.62 21.106 20.5 17.556 20.5H6.43597C2.88597 20.5 1.99597 19.62 1.99597 16.11V7.89C1.99597 4.38 2.88597 3.5 6.43597 3.5H14.496" stroke="black" stroke-width="1.5" stroke-linecap="round" stroke-linejoin="round"/>
<path d="M19.076 4.12982L15.366 7.83982C15.226 7.97982 15.086 8.25982 15.056 8.45982L14.856 9.87982C14.786 10.3898 15.146 10.7498 15.656 10.6798L17.076 10.4798C17.276 10.4498 17.556 10.3098 17.696 10.1698L21.406 6.45982C22.046 5.81982 22.346 5.07982 21.406 4.13982C20.456 3.18982 19.716 3.48982 19.076 4.12982V4.12982Z" stroke="black" stroke-width="1.5" stroke-miterlimit="10" stroke-linecap="round" stroke-linejoin="round"/>
<path d="M18.546 4.66016C18.866 5.79016 19.746 6.67016 20.866 6.98016" stroke="black" stroke-width="1.5" stroke-miterlimit="10" stroke-linecap="round" stroke-linejoin="round"/>
</svg>
