<svg width="41" height="40" viewBox="0 0 41 40" fill="none" xmlns="http://www.w3.org/2000/svg">
<g clip-path="url(#clip0_1_299)">
<path d="M37.0539 1.72683C36.9162 1.64189 36.7576 1.59668 36.596 1.59668H10.4863C8.24157 1.59668 6.41539 3.40505 6.41539 5.62133L6.26196 28.1057H1.54341C1.05912 28.1057 0.666626 28.4982 0.666626 28.9825V33.0332C0.669708 36.0078 3.08018 38.4182 6.05475 38.4217C6.11503 38.4217 6.17565 38.4155 6.2349 38.4032H28.0192C28.1491 38.4124 28.2799 38.4186 28.4117 38.4186C31.4325 38.4131 33.8786 35.9636 33.8797 32.9428V19.7992H39.7897C40.274 19.7992 40.6665 19.4067 40.6665 18.9224V5.90697C40.6559 3.81399 39.1233 2.04021 37.0539 1.72683ZM2.4202 33.0335V29.8596H22.9438V32.9431C22.9428 34.3169 23.4596 35.6403 24.3915 36.6496H5.93487C5.89343 36.6499 5.85233 36.653 5.81157 36.6592C3.90422 36.5294 2.42259 34.9453 2.4202 33.0335ZM32.1261 5.90697V32.9428C32.1244 33.923 31.735 34.8621 31.0428 35.5557C30.3801 36.2355 29.4796 36.6325 28.5309 36.6626C28.4837 36.6544 28.4357 36.6503 28.3874 36.6499H28.0792C26.1694 36.4619 24.7101 34.8625 24.6974 32.9435V28.9825C24.6974 28.4986 24.3049 28.1057 23.8206 28.1057H8.01553L8.16896 5.62749C8.18164 4.35958 9.21802 3.34066 10.4863 3.35025H32.9971C32.4323 4.08285 32.1258 4.98189 32.1261 5.90697ZM38.913 18.0457H33.8797V5.90697C33.9026 4.53323 35.0226 3.43211 36.3963 3.43211C37.7701 3.43211 38.89 4.53323 38.913 5.90697V18.0457Z" fill="#FF4D4D"/>
<path d="M11.9234 11.0956H20.2275C20.7118 11.0956 21.1043 10.7031 21.1043 10.2188C21.1043 9.73454 20.7118 9.34204 20.2275 9.34204H11.9234C11.4391 9.34204 11.0466 9.73454 11.0466 10.2188C11.0466 10.7031 11.4391 11.0956 11.9234 11.0956Z" fill="#FF4D4D"/>
<path d="M27.4137 15.6108H11.9234C11.4391 15.6108 11.0466 16.0033 11.0466 16.4876C11.0466 16.9716 11.4391 17.3644 11.9234 17.3644H27.4137C27.898 17.3644 28.2905 16.9716 28.2905 16.4876C28.2905 16.0033 27.898 15.6108 27.4137 15.6108Z" fill="#FF4D4D"/>
<path d="M27.4137 21.8796H11.9234C11.4391 21.8796 11.0466 22.2725 11.0466 22.7564C11.0466 23.2407 11.4391 23.6332 11.9234 23.6332H27.4137C27.898 23.6332 28.2905 23.2407 28.2905 22.7564C28.2905 22.2725 27.898 21.8796 27.4137 21.8796Z" fill="#FF4D4D"/>
</g>
<defs>
<clipPath id="clip0_1_299">
<rect width="40" height="40" fill="white" transform="translate(0.666626)"/>
</clipPath>
</defs>
</svg>
