<svg width="40" height="40" viewBox="0 0 40 40" fill="none" xmlns="http://www.w3.org/2000/svg">
<path d="M28.7499 28.7497V22.3404C28.7499 19.1904 28.0718 16.7842 24.3968 16.7842C22.625 16.7842 21.4437 17.7467 20.9625 18.6654H20.9187V17.0686H17.4406V28.7497H21.0718V22.9529C21.0718 21.4216 21.3562 19.956 23.2375 19.956C25.0968 19.956 25.1187 21.6841 25.1187 23.0404V28.7279H28.7499V28.7497Z" fill="white"/>
<path d="M11.5344 17.0691H15.1656V28.7503H11.5344V17.0691Z" fill="white"/>
<path d="M13.35 11.25C12.1906 11.25 11.25 12.1906 11.25 13.35C11.25 14.5094 12.1906 15.4718 13.35 15.4718C14.5094 15.4718 15.45 14.5094 15.45 13.35C15.45 12.1906 14.5094 11.25 13.35 11.25Z" fill="white"/>
</svg>
