<svg width="12" height="16" viewBox="0 0 12 16" fill="none" xmlns="http://www.w3.org/2000/svg">
<path d="M6.00001 0C2.74091 0 0.0895386 2.65137 0.0895386 5.91047C0.0895386 6.9834 0.570721 8.13733 0.590886 8.18601C0.746297 8.55489 1.05295 9.12786 1.27407 9.46371L5.32657 15.604C5.49241 15.8557 5.73787 16 6.00001 16C6.26216 16 6.50762 15.8557 6.67346 15.6043L10.7263 9.46371C10.9478 9.12786 11.2541 8.55489 11.4095 8.18601C11.4297 8.13768 11.9105 6.98375 11.9105 5.91047C11.9105 2.65137 9.25912 0 6.00001 0ZM10.7684 7.91621C10.6297 8.24685 10.3442 8.77983 10.1457 9.08092L6.09284 15.2216C6.01288 15.3429 5.9875 15.3429 5.90753 15.2216L1.85468 9.08092C1.65616 8.77983 1.37072 8.2465 1.232 7.91586C1.22609 7.90161 0.784888 6.83946 0.784888 5.91047C0.784888 3.03485 3.12439 0.69535 6.00001 0.69535C8.87563 0.69535 11.2151 3.03485 11.2151 5.91047C11.2151 6.84085 10.7729 7.90578 10.7684 7.91621Z" fill="white"/>
<path d="M5.99998 2.78223C4.27447 2.78223 2.87091 4.18614 2.87091 5.9113C2.87091 7.63646 4.27447 9.04038 5.99998 9.04038C7.7255 9.04038 9.12906 7.63646 9.12906 5.9113C9.12906 4.18614 7.7255 2.78223 5.99998 2.78223ZM5.99998 8.34503C4.65831 8.34503 3.56626 7.25333 3.56626 5.9113C3.56626 4.56928 4.65831 3.47758 5.99998 3.47758C7.34166 3.47758 8.43371 4.56928 8.43371 5.9113C8.43371 7.25333 7.34166 8.34503 5.99998 8.34503Z" fill="white"/>
</svg>
