<svg width="20" height="21" viewBox="0 0 20 21" fill="none" xmlns="http://www.w3.org/2000/svg">
<path d="M18.9225 9.69446L13.0892 3.86112C12.932 3.70933 12.7215 3.62533 12.503 3.62723C12.2845 3.62913 12.0755 3.71677 11.921 3.87128C11.7665 4.02578 11.6789 4.23479 11.677 4.45329C11.6751 4.67179 11.7591 4.88229 11.9109 5.03946L16.3217 9.45029H1.66671C1.44569 9.45029 1.23373 9.53809 1.07745 9.69437C0.921171 9.85065 0.833374 10.0626 0.833374 10.2836C0.833374 10.5046 0.921171 10.7166 1.07745 10.8729C1.23373 11.0292 1.44569 11.117 1.66671 11.117H16.3217L11.9109 15.5278C11.8313 15.6047 11.7678 15.6966 11.7241 15.7983C11.6804 15.9 11.6575 16.0093 11.6565 16.12C11.6555 16.2306 11.6766 16.3403 11.7185 16.4428C11.7604 16.5452 11.8223 16.6382 11.9005 16.7165C11.9788 16.7947 12.0718 16.8566 12.1742 16.8985C12.2767 16.9404 12.3864 16.9615 12.497 16.9605C12.6077 16.9595 12.717 16.9365 12.8187 16.8929C12.9204 16.8492 13.0123 16.7857 13.0892 16.7061L18.9225 10.8728C19.0788 10.7165 19.1665 10.5046 19.1665 10.2836C19.1665 10.0627 19.0788 9.85073 18.9225 9.69446V9.69446Z" fill="#2D2D34"/>
</svg>
