<svg width="20" height="15" viewBox="0 0 20 15" fill="none" xmlns="http://www.w3.org/2000/svg">
<path d="M18.9225 6.91077L13.0892 1.07743C12.932 0.925634 12.7215 0.841639 12.503 0.843537C12.2845 0.845436 12.0755 0.933077 11.921 1.08758C11.7665 1.24209 11.6788 1.4511 11.6769 1.6696C11.675 1.8881 11.759 2.0986 11.9108 2.25577L16.3217 6.6666H1.66666C1.44565 6.6666 1.23369 6.7544 1.07741 6.91068C0.921126 7.06696 0.833328 7.27892 0.833328 7.49993C0.833328 7.72095 0.921126 7.93291 1.07741 8.08919C1.23369 8.24547 1.44565 8.33327 1.66666 8.33327H16.3217L11.9108 12.7441C11.8312 12.821 11.7678 12.9129 11.7241 13.0146C11.6804 13.1163 11.6574 13.2256 11.6565 13.3363C11.6555 13.4469 11.6766 13.5566 11.7185 13.6591C11.7604 13.7615 11.8223 13.8545 11.9005 13.9328C11.9787 14.011 12.0718 14.0729 12.1742 14.1148C12.2766 14.1567 12.3863 14.1778 12.497 14.1768C12.6076 14.1758 12.717 14.1529 12.8187 14.1092C12.9203 14.0655 13.0123 14.002 13.0892 13.9224L18.9225 8.0891C19.0787 7.93283 19.1665 7.7209 19.1665 7.49993C19.1665 7.27896 19.0787 7.06704 18.9225 6.91077Z" fill="white"/>
</svg>
