<svg width="20" height="15" viewBox="0 0 20 15" fill="none" xmlns="http://www.w3.org/2000/svg">
<path d="M1.07732 8.1095L6.91065 13.9428C7.06782 14.0946 7.27832 14.1786 7.49682 14.1767C7.71532 14.1748 7.92433 14.0872 8.07884 13.9327C8.23334 13.7782 8.32098 13.5692 8.32288 13.3507C8.32478 13.1322 8.24079 12.9217 8.08899 12.7645L3.67815 8.35366L18.3332 8.35366C18.5542 8.35366 18.7661 8.26587 18.9224 8.10959C19.0787 7.95331 19.1665 7.74134 19.1665 7.52033C19.1665 7.29932 19.0787 7.08736 18.9224 6.93108C18.7661 6.7748 18.5542 6.687 18.3332 6.687L3.67815 6.687L8.08899 2.27616C8.16858 2.19929 8.23207 2.10734 8.27574 2.00567C8.31941 1.904 8.3424 1.79465 8.34336 1.684C8.34433 1.57335 8.32324 1.46362 8.28134 1.3612C8.23944 1.25879 8.17756 1.16575 8.09932 1.0875C8.02107 1.00926 7.92803 0.947379 7.82562 0.905479C7.7232 0.863578 7.61347 0.842493 7.50282 0.843455C7.39217 0.844416 7.28282 0.867406 7.18115 0.91108C7.07948 0.954754 6.98753 1.01824 6.91065 1.09783L1.07732 6.93116C0.921095 7.08744 0.833332 7.29936 0.833332 7.52033C0.833332 7.7413 0.921095 7.95322 1.07732 8.1095V8.1095Z" fill="white"/>
</svg>
