<svg width="20" height="21" viewBox="0 0 20 21" fill="none" xmlns="http://www.w3.org/2000/svg">
<path d="M18.6944 9.09371L14.8013 12.8887L15.7206 18.2487C15.7606 18.4831 15.6644 18.72 15.4719 18.86C15.3631 18.9393 15.2338 18.9793 15.1044 18.9793C15.005 18.9793 14.905 18.9556 14.8138 18.9075L10 16.3768L5.18688 18.9068C4.97688 19.0181 4.72126 19 4.52876 18.8593C4.33626 18.7193 4.24001 18.4825 4.28001 18.2481L5.19938 12.8881L1.30563 9.09371C1.13563 8.92746 1.07376 8.67871 1.14751 8.45309C1.22126 8.22746 1.41688 8.06184 1.65251 8.02746L7.03313 7.24621L9.43938 2.36996C9.65001 1.94309 10.35 1.94309 10.5606 2.36996L12.9669 7.24621L18.3475 8.02746C18.5831 8.06184 18.7788 8.22684 18.8525 8.45309C18.9263 8.67934 18.8644 8.92684 18.6944 9.09371Z" fill="#FAB400"/>
</svg>
