<svg width="24" height="24" viewBox="0 0 24 24" fill="none" xmlns="http://www.w3.org/2000/svg">
<path d="M8 2V5M16 2V5M3.5 9.09H20.5M22 19C22 19.75 21.79 20.46 21.42 21.06C21.0675 21.6525 20.5667 22.143 19.967 22.4831C19.3674 22.8233 18.6894 23.0014 18 23C16.99 23 16.07 22.63 15.37 22C15.06 21.74 14.79 21.42 14.58 21.06C14.1993 20.4404 13.9985 19.7272 14 19C14 16.79 15.79 15 18 15C19.2 15 20.27 15.53 21 16.36C21.6431 17.0892 21.9986 18.0277 22 19Z" stroke="black" stroke-width="1.5" stroke-miterlimit="10" stroke-linecap="round" stroke-linejoin="round"/>
<path d="M16.44 19L17.43 19.99L19.56 18.02" stroke="black" stroke-width="1.5" stroke-linecap="round" stroke-linejoin="round"/>
<path d="M21 8.5V16.36C20.27 15.53 19.2 15 18 15C15.79 15 14 16.79 14 19C14 19.75 14.21 20.46 14.58 21.06C14.79 21.42 15.06 21.74 15.37 22H8C4.5 22 3 20 3 17V8.5C3 5.5 4.5 3.5 8 3.5H16C19.5 3.5 21 5.5 21 8.5Z" stroke="black" stroke-width="1.5" stroke-miterlimit="10" stroke-linecap="round" stroke-linejoin="round"/>
<path d="M11.995 13.7002H12.005M8.29401 13.7002H8.30401M8.29401 16.7002H8.30401" stroke="black" stroke-width="2" stroke-linecap="round" stroke-linejoin="round"/>
</svg>
