<svg width="40" height="40" viewBox="0 0 40 40" fill="none" xmlns="http://www.w3.org/2000/svg">
<path d="M23.4719 26.5692C23.4719 26.5692 28.4237 23.0033 28.0899 16.5164C28.0899 16.5164 29.759 15.0509 30.0001 14.4061C30.0001 14.4061 28.5721 15.0314 27.8859 14.9532C27.8859 14.9532 29.5179 13.7027 29.4252 12.6867C29.4252 12.6867 27.8302 13.6246 27.0513 13.7027C27.0513 13.7027 24.1211 11.104 21.4133 13.5464C21.4133 13.5464 20.078 14.6797 20.3377 17.4933C20.3377 17.4933 16.2605 17.4933 12.3629 13.2338C12.3629 13.2338 10.805 16.6336 13.5498 18.6461C13.5498 18.6461 12.6782 18.861 11.788 18.0795C11.788 18.0795 11.7323 21.362 14.9408 22.2413C14.9408 22.2413 13.9764 22.5343 13.2345 22.339C13.2345 22.339 13.8837 24.9767 16.7954 25.1135C16.7954 25.1135 14.9593 27.2237 11.2501 26.8329C11.2501 26.8329 16.1555 31.3171 23.4719 26.5692Z" fill="white"/>
</svg>
