<svg width="703" height="607" viewBox="0 0 703 607" fill="none" xmlns="http://www.w3.org/2000/svg">
<path d="M-0.00012207 542.095V606.707H702.816C702.816 606.707 672.996 553.623 605.526 513.178C605.526 513.178 593.072 514.423 593.852 506.057C594.631 497.693 599.3 487.578 593.852 492.247C588.404 496.915 588.404 509.12 586.069 503.796C583.735 498.47 586.847 486.773 582.955 491.067C579.064 495.361 575.173 503.706 572.059 499.144C568.945 494.583 508.236 477.467 503.567 476.688C498.897 475.91 501.353 465.932 500.047 465.683C493.448 464.434 500.002 475.131 492.833 472.019C485.665 468.907 464.65 468.713 455.31 462.974C445.97 457.237 273.961 440.899 147.873 468.517C21.7868 496.136 -0.00012207 542.095 -0.00012207 542.095Z" fill="#FF4D4D"/>
<path d="M385.514 303.212C385.894 303.212 386.271 303.035 386.509 302.702C389.806 298.081 395.867 284.56 396.489 278.319C397.112 272.085 393.563 257.19 393.413 256.562C393.259 255.907 392.612 255.51 391.942 255.658C391.287 255.816 390.883 256.475 391.039 257.129C391.074 257.28 394.643 272.251 394.062 278.077C393.48 283.871 387.604 296.967 384.52 301.282C384.13 301.832 384.257 302.592 384.804 302.986C385.021 303.138 385.268 303.212 385.514 303.212Z" fill="#1D191F"/>
<path d="M368.18 440.946L376.206 440.366C367.501 438.036 362.101 424.021 358.732 414.389C358.1 412.587 357.496 410.86 356.889 409.276C353.887 401.455 353.623 377.127 353.781 367.777C355.039 363.372 358.389 352.652 360.736 349.157C361.756 347.644 362.105 345.954 361.754 344.271C361.01 340.734 357.403 338.452 354.217 336.438C353.202 335.795 351.729 334.862 351.116 334.295C350.404 329.782 345.147 328.373 341.256 327.332C340.038 327.005 338.882 326.696 337.959 326.352C334.185 322.886 317.683 291.322 314.053 274.378C310.985 260.06 316.178 255.021 316.233 254.97L311.469 249.412C310.578 250.154 302.886 257.208 306.893 275.912C310.009 290.454 328.059 330.26 334.933 333.031C336.311 333.583 337.862 334 339.364 334.4C340.784 334.782 343.07 335.395 343.936 335.936C344.391 338.882 347.267 340.702 350.301 342.621C351.487 343.371 353.556 344.682 354.354 345.546C350.901 351.137 347.046 364.678 346.605 366.245L346.47 367.162C346.403 370.611 345.933 401.164 350.054 411.896C350.638 413.418 351.217 415.076 351.822 416.803C355.595 427.59 355.734 437.613 368.18 440.946ZM351.19 335.02C351.19 335.022 351.19 335.024 351.19 335.026C351.19 335.026 351.19 335.022 351.19 335.02Z" fill="#FF4D4D"/>
<path d="M232.383 367.881C238.155 365.045 253.131 362.11 262.096 360.212C265.93 359.399 269.242 358.697 271.724 358.063C277.037 356.708 280.72 358.208 283.971 359.534C285.159 360.018 286.282 360.475 287.418 360.762C291.975 361.893 295.066 357.425 297.316 354.153C297.552 353.807 297.842 353.386 298.12 352.994C298.144 353.007 298.169 353.019 298.19 353.032C301.04 354.698 304.947 356.974 308.636 355.891C310.391 355.377 311.787 354.188 312.677 352.454C313.802 350.255 314.337 347.98 314.809 345.97C315.5 343.041 315.995 341.185 317.438 340.032C322.412 336.053 322.393 334.182 322.507 333.611L318.768 327.52C318.761 327.552 315.763 331.997 312.866 334.317C309.379 337.106 308.48 340.924 307.686 344.293C307.3 345.93 306.936 347.48 306.304 348.824C305.145 348.616 302.819 347.257 301.883 346.709C300.539 345.925 299.568 345.359 298.542 345.106C295.247 344.274 293.218 347.192 291.282 350.004C290.589 351.016 289.373 352.783 288.591 353.476C288.06 353.293 287.43 353.038 286.737 352.754C283.084 351.264 277.57 349.012 269.914 350.971C267.579 351.568 264.335 352.252 260.579 353.049C250.714 355.141 241.21 357.903 234.622 361.139L232.383 367.881Z" fill="#FF4D4D"/>
<path d="M190.897 407.536C191.127 407.536 191.356 407.471 191.565 407.338C205.173 398.464 235.832 395.965 236.139 395.94C236.811 395.887 237.313 395.302 237.258 394.629C237.205 393.957 236.603 393.41 235.948 393.509C234.664 393.608 204.362 396.077 190.229 405.294C189.664 405.663 189.506 406.419 189.873 406.984C190.109 407.34 190.499 407.536 190.897 407.536Z" fill="#1D191F"/>
<path d="M201.848 383.552C202.634 383.552 203.565 383.396 204.655 383.084C209.001 381.843 231.985 369.478 232.962 368.955C233.556 368.635 233.778 367.896 233.457 367.301C233.135 366.709 232.393 366.49 231.803 366.806C223.614 371.218 207.261 379.803 203.983 380.741C202.148 381.264 201.433 381.101 201.237 381.03C201.113 380.486 200.626 380.084 200.049 380.084C199.375 380.084 198.829 380.629 198.829 381.304C198.829 381.778 199.061 382.46 199.708 382.949C200.241 383.349 200.953 383.552 201.848 383.552ZM201.269 381.299V381.301V381.299Z" fill="#1D191F"/>
<path d="M189.068 367.269C189.068 367.269 200.66 378.555 200.66 379.775C200.66 380.995 192.424 388.316 191.813 390.756C191.205 393.196 185.712 390.145 184.187 390.756C182.661 391.367 182.967 395.638 187.237 396.552C191.508 397.466 191.202 408.449 189.677 409.975C188.152 411.5 175.035 418.21 167.713 425.837C160.392 433.464 156.427 441.089 153.376 442.309C150.325 443.528 147.275 444.443 146.36 438.343C145.446 432.242 144.53 419.127 152.462 409.669C160.394 400.214 163.748 399.297 166.188 399.297C168.628 399.297 172.595 399.603 171.07 396.246C169.544 392.89 166.188 389.84 167.41 387.094C168.63 384.351 178.085 366.355 189.068 367.269Z" fill="#1D191F"/>
<path d="M146.674 446.779C149.188 446.779 150.646 445.319 151.114 444.379C151.413 443.777 151.17 443.046 150.568 442.742C149.965 442.448 149.247 442.683 148.939 443.269C148.844 443.44 148.008 444.811 145.436 444.175C141.932 443.301 139.191 442.298 138.407 438.12C137.529 433.424 138.188 420.892 143.74 411.833C146.556 407.234 150.344 403.677 153.389 400.818C156.682 397.726 159.288 395.282 159.474 392.673C159.541 391.729 159.564 390.771 159.587 389.789C159.671 386.378 159.758 382.851 161.787 378.796C164.545 373.28 171.11 366.06 177.325 363.517C183.032 361.184 185.611 362.21 187.939 367.743C188.202 368.36 188.915 368.651 189.538 368.394C190.158 368.131 190.45 367.416 190.189 366.795C187.337 360.021 183.34 358.42 176.4 361.258C169.401 364.123 162.52 371.87 159.604 377.704C157.333 382.249 157.236 386.224 157.15 389.73C157.126 390.672 157.101 391.593 157.038 392.501C156.92 394.154 154.51 396.419 151.718 399.04C148.568 401.998 144.648 405.679 141.656 410.556C135.411 420.749 135.163 434.062 136.007 438.567C137.052 444.15 140.946 445.568 144.841 446.543C145.509 446.707 146.116 446.779 146.674 446.779Z" fill="#1D191F"/>
<path d="M363.827 255.653C369.816 255.653 380.663 254.865 386.343 249.606C389.4 246.775 390.904 244.51 392.231 242.511C393.377 240.783 394.368 239.293 396.177 237.602C400.863 233.224 398.935 228.14 398.849 227.925C398.602 227.295 397.892 226.992 397.266 227.236C396.643 227.483 396.335 228.186 396.575 228.812C396.634 228.966 397.955 232.598 394.509 235.819C392.492 237.705 391.378 239.384 390.198 241.16C388.885 243.136 387.527 245.182 384.685 247.816C378.825 253.243 365.824 253.308 361.96 253.184C361.284 253.154 360.723 253.694 360.704 254.368C360.685 255.042 361.214 255.603 361.888 255.624C362.453 255.641 363.106 255.653 363.827 255.653Z" fill="#1D191F"/>
<path d="M354.86 266.516C366.833 266.516 378.522 264.283 384.739 261.845C397.661 256.778 397.277 251.353 396.854 249.811C396.685 249.198 396.477 248.671 396.285 248.187C395.788 246.931 395.6 246.463 396.361 245.321C398.105 242.705 396.691 237.041 396.525 236.403C396.356 235.754 395.693 235.356 395.037 235.533C394.384 235.704 393.995 236.369 394.165 237.02C394.726 239.167 395.147 242.742 394.33 243.967C392.859 246.172 393.447 247.653 394.016 249.086C394.18 249.499 394.359 249.942 394.5 250.46C395.067 252.516 392.619 256.136 383.85 259.572C373.291 263.718 346.439 267.27 330.528 259.61C304.721 247.184 302.897 242.58 302.951 241.466C303.004 240.408 303.129 239.27 303.253 238.099C303.613 234.726 304.022 230.904 302.869 227.936C301.43 224.225 300 220.543 301.475 215.937C302.518 212.667 302.751 207.781 302.979 203.058C303.118 200.184 303.247 197.471 303.55 195.406C304.414 189.589 306.244 185.394 306.988 184.777C307.504 184.345 307.574 183.576 307.144 183.058C306.71 182.542 305.941 182.476 305.425 182.9C303.647 184.381 301.848 190.24 301.138 195.046C300.813 197.23 300.68 200.003 300.539 202.938C300.322 207.503 300.097 212.225 299.146 215.189C297.408 220.616 299.071 224.893 300.535 228.667C301.529 231.231 301.171 234.589 300.824 237.838C300.693 239.055 300.569 240.242 300.514 241.341C300.379 244.076 303.232 249.173 329.468 261.805C336.594 265.237 345.807 266.516 354.86 266.516Z" fill="#1D191F"/>
<path d="M245.078 268.617C251.3 268.617 258.192 267.229 261.329 266.508C266.229 265.387 267.209 258.951 267.923 254.255C268.184 252.531 268.582 249.927 269.065 249.516C271.979 247.574 272.446 245.871 272.446 241.403C272.446 239.092 273.772 237.328 275.303 235.285C276.249 234.025 277.227 232.725 278.011 231.155C279.717 227.744 285.631 211.071 284.19 206.263C283.187 202.9 287.279 195.33 294.023 192.701C301.348 189.846 315.989 180.785 316.608 180.399C317.179 180.045 317.356 179.293 317.002 178.72C316.644 178.147 315.888 177.976 315.323 178.326C315.173 178.419 300.257 187.655 293.138 190.428C285.448 193.426 280.423 202.171 281.854 206.964C282.897 210.443 277.973 225.78 275.83 230.066C275.145 231.435 274.235 232.649 273.354 233.82C271.711 236.011 270.009 238.278 270.009 241.403C270.009 245.564 269.602 246.228 267.704 247.492C266.351 248.395 265.997 250.698 265.515 253.888C264.872 258.116 264.07 263.379 260.789 264.131C249.501 266.719 236.742 267.403 235.387 262.804C234.256 258.957 234.744 252.845 235.172 247.454C235.484 243.535 235.779 239.835 235.425 237.356C234.894 233.629 241.819 207.695 245.959 192.202C247.969 184.676 249.555 178.733 250.053 176.365C251.519 169.41 294.13 138.576 305.042 134.129C314.442 130.3 328.461 125.29 341.962 125.676C342.322 125.712 342.672 125.537 342.91 125.269C345.32 122.566 348.394 119.545 349.595 118.85C349.787 119.052 350.073 119.362 350.339 119.646C353.252 122.794 360.059 130.168 369.812 128.923C378.223 127.85 383.098 125.895 385.401 124.911C385.441 125.88 385.611 127.087 386.488 127.964C386.547 128.023 386.614 128.078 386.684 128.124C386.89 128.259 391.888 131.383 405.561 130.147C418.826 128.942 426.132 128.276 438.851 115.559C442.406 112.005 446.55 107.658 450.936 103.055C461.161 92.3309 472.746 80.1765 477.175 77.9623C482.229 75.434 491.337 74.4164 494.613 74.1215C494.978 77.9686 496.853 89.2275 506.386 92.9987C506.363 94.5093 505.71 98.9842 499.859 106.634C499.002 107.757 497.913 109.194 496.644 110.871C486.799 123.885 463.742 154.363 456.422 157.502C454.059 158.515 450.138 159.923 445.598 161.551C433.264 165.976 417.916 171.483 413.335 176.063C409.467 179.931 406.126 194.648 403.178 207.632C401.455 215.225 399.673 223.075 398.619 224.339C397.043 226.231 393.799 227.883 391.19 229.211C388.54 230.559 387.008 231.37 386.338 232.377C385.965 232.938 386.117 233.694 386.677 234.069C387.236 234.438 387.994 234.292 388.369 233.73C388.717 233.207 390.701 232.196 392.296 231.385C395.105 229.956 398.598 228.178 400.492 225.903C401.855 224.266 403.235 218.4 405.559 208.172C408.146 196.771 411.69 181.155 415.061 177.787C419.256 173.592 434.958 167.958 446.423 163.846C450.999 162.204 454.952 160.786 457.385 159.744C465.299 156.352 487.787 126.628 498.593 112.344C499.859 110.673 500.942 109.238 501.8 108.117C509.854 97.5833 508.864 92.3856 508.725 91.8294C508.622 91.427 508.325 91.1025 507.935 90.9698C497.5 87.4303 496.973 72.9205 496.967 72.7731C496.956 72.4423 496.813 72.1284 496.568 71.9051C496.324 71.6817 496.006 71.5743 495.669 71.5869C495.144 71.6206 482.737 72.4549 476.086 75.7795C471.276 78.1834 460.04 89.9712 449.173 101.371C444.795 105.964 440.661 110.3 437.128 113.833C425.035 125.927 418.453 126.525 405.344 127.715C393.801 128.771 388.957 126.571 388.137 126.142C387.851 125.726 387.836 124.875 387.828 124.298C387.817 123.615 387.794 122.016 386.338 122.016C385.955 122.016 385.624 122.157 384.83 122.501C382.811 123.371 378.088 125.408 369.507 126.5C361.016 127.57 354.792 120.855 352.134 117.986C351.261 117.046 350.893 116.657 350.482 116.452C349.772 116.098 348.472 115.447 341.473 123.224C327.728 122.973 313.601 128.008 304.127 131.87C293.133 136.347 249.482 167.263 247.67 175.861C247.185 178.166 245.607 184.082 243.604 191.57C237.481 214.498 232.459 233.797 233.013 237.699C233.331 239.911 233.046 243.48 232.743 247.258C232.296 252.86 231.793 259.212 233.051 263.491C234.205 267.443 239.36 268.617 245.078 268.617Z" fill="#1D191F"/>
<path d="M369.966 139.203C373.916 139.203 377.688 138.56 381.033 137.408C393.213 133.209 393.078 129.098 392.928 128.316C392.798 127.651 392.151 127.223 391.498 127.349C390.868 127.47 390.447 128.053 390.516 128.679C390.495 128.89 390.029 131.725 380.237 135.101C369.357 138.851 353.611 136.776 342.942 123.688C342.514 123.163 341.745 123.089 341.222 123.513C340.7 123.939 340.622 124.708 341.047 125.23C349.195 135.216 360.129 139.2 369.966 139.203Z" fill="#1D191F"/>
<path d="M476.621 42.7063L627.515 16.2695L488.008 21.1491L476.621 42.7063Z" fill="#FF4D4D"/>
<path d="M501.456 20.6791V13.8276L627.515 16.2695L501.456 20.6791Z" fill="white"/>
<path d="M493.284 13.6692L519.327 0L627.515 16.269L493.284 13.6692Z" fill="#FF4D4D"/>
<path d="M507.53 93.3425C507.874 93.3425 508.215 93.1972 508.455 92.9191C508.641 92.7021 527.153 71.1996 532.686 66.8489C533.811 65.9662 534.991 65.0033 536.217 64.0026C541.187 59.949 546.825 55.354 552.541 52.929C560.126 49.714 569.821 34.1276 570.23 33.466C570.584 32.893 570.407 32.1407 569.834 31.7868C569.265 31.4307 568.511 31.6078 568.155 32.1829C568.058 32.3367 558.461 47.7651 551.589 50.681C545.553 53.2408 539.774 57.9538 534.675 62.1106C533.459 63.1008 532.292 64.0531 531.18 64.9296C525.458 69.4256 507.372 90.435 506.606 91.3262C506.165 91.8382 506.224 92.6093 506.734 93.0475C506.966 93.2456 507.25 93.3425 507.53 93.3425Z" fill="#1D191F"/>
<path d="M544.495 30.6319L624.26 16.2695L541.592 41.124L544.495 30.6319Z" fill="white"/>
<path d="M529.435 44.7769L499.805 53.6867L497.771 39.0441L532.998 32.7004C532.998 32.7004 532.218 37.2618 531.774 39.0695C531.327 40.875 529.435 44.7769 529.435 44.7769Z" fill="white"/>
<path d="M380.635 126.597C380.747 126.597 380.859 126.582 380.974 126.548C381.623 126.361 381.994 125.684 381.809 125.037C381.786 124.955 379.516 116.92 381.769 111.351C382.021 110.728 381.718 110.016 381.095 109.763C380.473 109.506 379.761 109.811 379.506 110.437C376.936 116.793 379.36 125.353 379.466 125.716C379.617 126.249 380.106 126.597 380.635 126.597Z" fill="#1D191F"/>
<path d="M353.47 122.345C353.847 122.345 354.218 122.17 354.456 121.841C357.793 117.251 363.355 109.213 363.14 106.955C363.075 106.28 362.438 105.775 361.811 105.857C361.138 105.92 360.648 106.516 360.709 107.186C360.624 108.453 356.373 115.049 352.481 120.409C352.085 120.955 352.206 121.717 352.751 122.113C352.97 122.269 353.221 122.345 353.47 122.345Z" fill="#1D191F"/>
<path d="M217.136 312.125C217.414 312.125 217.709 312.094 218.006 312.028C221.375 311.28 234.557 297.773 237.02 294.487C239.317 291.426 242.706 289.548 243.958 288.977C244.721 289.818 246.195 292.736 246.406 295.378C246.655 298.498 247.133 301.555 248.953 302.796C249.535 303.197 250.533 303.58 251.93 303.159C255.672 302.027 255.097 298.547 254.3 293.73L254.027 292.039C253.401 288.071 251.159 283.86 249.821 281.342C249.486 280.708 249.113 280.011 248.932 279.608C249.897 277.969 253.873 271.451 256.576 267.032C256.925 266.457 256.744 265.707 256.171 265.355C255.604 265.008 254.846 265.185 254.494 265.76C253.222 267.839 246.859 278.247 246.547 278.873C246.159 279.65 246.509 280.308 247.67 282.49C248.938 284.871 251.056 288.855 251.618 292.422L251.896 294.131C252.722 299.143 252.762 300.361 251.226 300.824C250.647 300.999 250.424 300.847 250.331 300.784C249.225 300.028 248.934 296.383 248.839 295.184C248.563 291.706 246.566 287.726 245.096 286.753C244.43 286.314 243.872 286.407 243.591 286.498C242.3 286.93 237.882 289.275 235.069 293.025C231.837 297.333 219.529 309.193 217.479 309.648C217.249 309.696 216.855 309.751 216.746 309.534C216.531 309.123 216.693 307.648 218.564 305.948C220.976 303.759 228.957 293.391 228.26 290.871C228.11 290.322 227.689 289.926 227.135 289.816C225.993 289.591 224.847 290.416 218.343 296.166C215.001 299.122 209.949 303.588 208.66 303.847C207.956 303.989 207.49 304.048 207.185 304.069C207.332 303.778 207.594 303.344 208.055 302.71C209.073 301.311 211.083 299.107 213.025 296.973C215.838 293.884 218.495 290.966 219.432 289.232C219.75 288.638 219.529 287.899 218.937 287.578C218.349 287.267 217.605 287.479 217.283 288.074C216.489 289.546 213.691 292.618 211.222 295.327C209.144 297.611 207.181 299.764 206.083 301.273C204.977 302.794 204.063 304.368 204.842 305.586C205.634 306.82 207.402 306.584 209.14 306.237C210.946 305.874 214.435 302.881 219.965 297.991C221.438 296.686 223.218 295.115 224.646 293.933C222.742 297.137 219.101 302.164 216.929 304.138C214.601 306.254 213.659 308.874 214.584 310.657C215.067 311.603 216.006 312.125 217.136 312.125Z" fill="#1D191F"/>
<path d="M204.792 301.926C206.496 301.926 208.639 301.149 209.732 300.533C210.318 300.203 210.527 299.459 210.194 298.871C209.863 298.285 209.117 298.077 208.529 298.41C206.964 299.295 204.838 299.617 204.37 299.45C204.32 299.394 204.282 299.345 204.274 299.328C204.29 299.33 204.326 298.604 206.599 296.476C209.911 293.372 215.109 286.586 217.193 283.809C217.532 283.356 217.551 282.572 217.188 282.138C215.726 280.379 203.287 286.196 203.163 286.257C203.032 286.325 202.948 286.327 202.923 286.325C202.9 286.245 202.883 285.333 204.482 284.022C206.41 282.444 217.273 278.458 233.54 273.353L233.83 273.26C237.277 272.179 238.737 267.281 238.893 266.725C239.074 266.076 238.697 265.404 238.05 265.221C237.385 265.044 236.727 265.419 236.544 266.063C236.217 267.22 234.962 270.347 233.104 270.932L232.811 271.023C220.757 274.805 205.786 279.802 202.94 282.132C200.233 284.346 200.161 286.504 200.921 287.679C201.623 288.758 202.995 289.068 204.259 288.438C205.514 287.808 210.189 285.952 213.312 284.877C210.95 287.932 207.345 292.437 204.935 294.691C202.725 296.762 201.806 298.193 201.857 299.474C201.899 300.576 202.662 301.184 202.95 301.416C203.401 301.781 204.054 301.926 204.792 301.926Z" fill="#1D191F"/>
<path d="M398.09 20.6789C398.09 20.6789 413.171 24.5703 415.206 32.8249C417.239 41.0795 415.206 49.6207 408.698 48.8074C402.19 47.9942 393.649 42.2994 387.956 42.706C382.262 43.1127 383.481 45.2531 385.517 48.86C387.55 52.467 383.89 58.5685 373.723 55.72C363.555 52.8737 363.148 47.5855 355.827 49.6186C348.506 51.6517 355.186 68.3274 353.473 70.7692C351.761 73.209 351.449 76.464 347.536 70.7692C343.624 65.0744 337.931 57.3465 331.83 59.3817C325.729 61.4148 337.525 73.211 343.624 75.6507C349.726 78.0904 349.726 78.0905 349.726 78.0905C349.726 78.0905 352.165 95.1643 355.827 97.6082C355.827 97.6082 331.423 94.3596 322.069 85.8184C312.714 77.2773 320.849 77.2773 319.223 72.8044C317.596 68.3295 308.242 68.0071 308.242 62.4746C308.242 56.942 309.462 57.7553 318.003 53.689C326.544 49.6228 324.104 47.5876 322.884 45.5545C321.664 43.5214 320.445 39.8596 327.359 37.8265C334.274 35.7934 350.638 30.9119 347.539 26.4391C344.442 21.9662 342.986 13.0163 353.476 13.8317C363.966 14.647 374.001 21.4311 379.965 20.6832C385.921 19.9289 391.485 18.2624 398.09 20.6789Z" fill="#1D191F"/>
<path d="M378.193 112.662C378.286 112.662 378.381 112.652 378.478 112.629C379.171 112.462 380.106 112.258 381.225 112.013C388.327 110.465 403.1 107.241 410.967 101.658C420.596 94.8279 418.851 77.8468 417.126 72.4322C415.48 67.262 411.494 48.7217 411.456 48.5342C411.386 48.2119 411.189 47.9316 410.91 47.7568C410.626 47.5819 410.289 47.5293 409.971 47.6072C409.573 47.7041 409.356 47.7126 409.246 47.7147C409.122 47.6536 408.989 47.6115 408.848 47.5946C406.075 47.247 402.769 45.907 399.571 44.607C395.305 42.8773 391.264 41.2382 387.87 41.4868C386.003 41.6195 383.755 41.9735 382.917 43.5305C382.036 45.1717 383.096 47.051 384.438 49.4339C385.078 50.5694 384.92 52.0062 384.046 53.1186C382.35 55.2887 378.612 55.8197 374.049 54.5429C369.894 53.3799 367.41 51.7724 365.413 50.4788C362.518 48.6079 360.232 47.1269 355.5 48.4395C349.648 50.0659 350.987 58.4448 351.967 64.563C352.298 66.6362 352.753 69.4741 352.458 70.0914C352.148 70.5297 351.87 71.0206 351.607 71.4799C351.352 71.9307 350.967 72.6113 350.766 72.7335C350.821 72.6914 350.185 72.4638 348.544 70.0746C345.118 65.0835 338.734 55.7818 331.444 58.2215C329.854 58.7504 328.954 59.8901 328.91 61.4281C328.769 66.2507 337.832 74.6423 343.175 76.7786L348.695 78.9865C349.431 81.9235 352.604 94.2802 354.763 98.1926C354.877 98.399 355.014 98.6687 355.178 98.9889C356.537 101.656 359.364 107.206 364.821 110.077C365.413 110.391 366.151 110.162 366.469 109.565C366.783 108.969 366.555 108.232 365.957 107.918C361.191 105.408 358.597 100.325 357.354 97.8807C357.175 97.5331 357.026 97.2403 356.901 97.0127C354.651 92.936 350.956 77.9437 350.918 77.7941C350.825 77.4106 350.551 77.0988 350.187 76.9513L344.086 74.5117C339.394 72.6345 331.257 64.8012 331.356 61.4997C331.367 61.169 331.442 60.794 332.224 60.5327C337.093 58.9105 341.983 64.8222 346.54 71.4545C348.407 74.1702 349.723 75.1837 350.977 75.1457C352.374 75.0868 353.099 73.8079 353.739 72.6808C353.963 72.2847 354.2 71.8612 354.481 71.463C355.315 70.2747 355.022 68.1447 354.386 64.1733C353.554 58.9652 352.41 51.8315 356.164 50.7886C359.838 49.7646 361.353 50.7464 364.101 52.5246C366.237 53.9066 368.894 55.6258 373.404 56.8878C381.385 59.1253 384.861 56.0472 385.98 54.6188C387.466 52.7247 387.703 50.226 386.591 48.2518C385.843 46.9224 384.834 45.1358 385.081 44.6787C385.112 44.6197 385.464 44.0993 388.057 43.9139C390.893 43.7054 394.85 45.3128 398.668 46.8614C401.923 48.1824 405.287 49.5477 408.317 49.9754C408.593 50.0933 408.873 50.1523 409.322 50.146C410.217 54.2817 413.35 68.5661 414.812 73.1632C416.331 77.9247 417.983 93.686 409.568 99.6589C402.106 104.953 387.659 108.105 380.717 109.62C379.575 109.869 378.625 110.077 377.921 110.246C377.266 110.404 376.862 111.061 377.018 111.718C377.14 112.287 377.641 112.662 378.193 112.662ZM409.598 47.9844C409.598 47.9865 409.598 47.9864 409.6 47.9864C409.598 47.9843 409.598 47.9844 409.598 47.9844ZM409.596 47.9801C409.596 47.9801 409.596 47.9822 409.598 47.9822C409.596 47.9822 409.596 47.9801 409.596 47.9801ZM409.543 47.9274C409.56 47.9443 409.577 47.9612 409.596 47.9801C409.579 47.9612 409.56 47.9443 409.543 47.9274Z" fill="#1D191F"/>
<path d="M414.052 66.7645C414.246 66.7645 414.44 66.7181 414.621 66.6233C420.939 63.2882 424.563 56.6853 425.848 51.6183C426.236 50.0846 426.758 47.314 425.88 45.9952C425.246 45.0408 424.161 44.5562 422.915 44.6826C420.914 44.8701 418.078 46.7157 416.121 51.3296C413.793 56.8201 411.842 59.361 411.819 59.3863C411.406 59.9172 411.503 60.6841 412.031 61.0991C412.564 61.5121 413.329 61.4173 413.742 60.8906C413.829 60.7789 415.897 58.1095 418.365 52.2841C420.012 48.4011 422.142 47.2045 423.143 47.1118C423.632 47.0634 423.8 47.2782 423.849 47.3499C424.544 48.8836 422.062 59.9341 413.483 64.4659C412.887 64.7798 412.659 65.5172 412.973 66.1134C413.192 66.5285 413.616 66.7645 414.052 66.7645Z" fill="#1D191F"/>
<path d="M345.655 191.205C345.655 202.86 350.537 212.309 368.042 212.309C380.405 212.309 387.83 202.86 387.83 191.205C387.83 179.55 382.87 170.1 368.042 170.1C353.41 170.1 345.655 179.55 345.655 191.205Z" fill="#FF4D4D"/>
<path d="M370.202 193.812C370.343 193.812 370.472 193.81 370.594 193.803C371.285 193.768 372.572 193.7 372.933 192.641C373.272 191.644 372.454 190.947 371.858 190.439C371.637 190.249 371.205 189.881 371.051 189.649C371.087 189.628 371.146 189.577 371.232 189.518C372.819 188.408 383.399 188.756 392.712 189.731C393.377 189.801 393.982 189.316 394.052 188.646C394.123 187.976 393.637 187.376 392.964 187.306C389.652 186.958 372.964 185.336 369.835 187.519C369.035 188.079 368.607 188.751 368.573 189.518C368.538 190.239 368.862 190.839 369.277 191.336C368.264 191.263 366.882 191.098 365.268 190.905C358.216 190.062 346.418 188.65 335.993 191.408C335.342 191.581 334.955 192.249 335.125 192.9C335.298 193.551 335.96 193.941 336.617 193.768C346.589 191.128 358.098 192.504 364.979 193.327C367.299 193.603 369.048 193.812 370.202 193.812Z" fill="#1D191F"/>
<path d="M540.475 51.2472C540.947 51.2472 541.398 50.9713 541.598 50.5078C542.795 47.7141 542.818 42.369 542.812 41.2882L545.698 31.1437C545.816 30.7392 545.713 30.3053 545.431 29.9935C545.152 29.6816 544.735 29.5341 544.316 29.6078L534.106 31.3965C533.62 31.4829 531.173 32.1866 530.72 37.7255C530.516 40.2158 529.749 41.9056 528.401 44.1536C528.053 44.7309 528.241 45.4808 528.82 45.8263C529.395 46.1697 530.145 45.9865 530.493 45.4071C531.995 42.9042 532.91 40.8773 533.15 37.9256C533.451 34.2892 534.62 33.7794 534.631 33.7752L542.816 32.3468L540.414 40.7931C540.38 40.909 540.363 41.027 540.366 41.1492C540.395 42.763 540.267 47.4149 539.35 49.5492C539.087 50.1686 539.371 50.8849 539.991 51.1504C540.151 51.2157 540.313 51.2472 540.475 51.2472Z" fill="#1D191F"/>
<path d="M495.736 74.0243C495.951 74.0243 496.164 73.9696 496.36 73.8537C499.141 72.1956 523.622 57.4877 526.905 51.422C527.118 51.0323 527.101 50.5583 526.859 50.1854C526.852 50.1727 525.864 48.5715 525.658 46.176C525.599 45.5039 524.985 45.0004 524.337 45.0658C523.665 45.1226 523.169 45.7147 523.226 46.3868C523.401 48.3904 524.012 49.9474 524.421 50.7922C520.844 55.7833 502.24 67.5079 495.111 71.7574C494.531 72.1029 494.341 72.8509 494.687 73.4302C494.917 73.8116 495.321 74.0243 495.736 74.0243Z" fill="#1D191F"/>
<path d="M371.801 491.685C371.801 491.685 372.955 473.882 373.977 473.008C374.999 472.133 387.038 473.791 389.522 472.555C392.004 471.318 393.381 478.106 394.987 478.947C396.59 479.787 399.953 476.473 397.658 472.237C395.364 468 404.788 460.388 407.16 460.573C409.532 460.759 424.556 466.944 436.195 467.616C447.833 468.288 457.065 466.148 460.274 467.831C463.482 469.514 466.434 471.415 461.976 476.553C457.518 481.692 447.18 491.858 433.57 491.986C419.961 492.115 416.788 489.957 415.04 487.911C413.291 485.866 410.706 482.324 408.985 486.007C407.263 489.69 407.112 494.687 403.937 495.633C400.764 496.575 378.901 501.545 371.801 491.685Z" fill="#1D191F"/>
<path d="M392.157 509.818C395.648 509.818 398.96 509.441 401.626 508.78C407.036 507.433 410.426 504.675 413.418 502.244C414.222 501.587 415.014 500.942 415.821 500.348C417.336 499.233 420.987 499.636 425.203 500.097C429.933 500.618 435.822 501.262 442.031 500.278C455.019 498.216 466.32 488.914 469.483 484.987C473.366 480.169 471.781 475.932 469.822 472.005C468.01 468.37 465.004 468.042 463.662 468.366C463.006 468.528 462.608 469.19 462.77 469.843C462.933 470.49 463.575 470.894 464.23 470.738C464.45 470.696 466.297 470.399 467.637 473.094C469.434 476.697 470.572 479.749 467.58 483.457C464.268 487.572 453.26 496.027 441.649 497.868C435.765 498.806 430.058 498.176 425.471 497.672C420.549 497.133 416.656 496.703 414.372 498.384C413.533 499.004 412.714 499.669 411.877 500.35C408.947 502.733 405.917 505.196 401.036 506.411C394.422 508.057 383.622 507.724 377.009 504.326C370.88 501.172 369.88 498.233 372.888 492.228C373.19 491.628 372.945 490.895 372.343 490.591C371.75 490.29 371.011 490.528 370.706 491.137C367.113 498.3 368.616 502.752 375.895 506.494C380.454 508.838 386.534 509.818 392.157 509.818Z" fill="#1D191F"/>
<path d="M402.702 468.907C403.149 468.907 403.579 468.66 403.793 468.234C404.088 467.642 403.861 466.928 403.286 466.614C403.109 466.503 397.612 462.748 391.618 438.048C391.458 437.394 390.803 437.007 390.143 437.15C389.488 437.31 389.088 437.97 389.244 438.625C395.602 464.826 401.503 468.449 402.152 468.778C402.329 468.867 402.515 468.907 402.702 468.907Z" fill="#1D191F"/>
<path d="M377.951 477.409C378.589 477.409 379.127 476.912 379.167 476.265C379.742 467.086 367.611 441.641 367.094 440.563C366.804 439.949 366.07 439.699 365.466 439.987C364.859 440.278 364.6 441.007 364.891 441.616C365.015 441.875 377.264 467.564 376.731 476.111C376.689 476.784 377.201 477.363 377.873 477.405C377.898 477.409 377.924 477.409 377.951 477.409Z" fill="#1D191F"/>
<path d="M368.436 442.496C376.44 442.496 390.822 438.238 397.722 434.212C404.916 430.015 402.74 414.456 400.823 400.728C400.587 399.036 400.355 397.38 400.149 395.785C399.297 389.265 399.519 376.702 399.736 364.549C399.99 350.191 400.231 336.632 398.903 330.996C396.453 320.584 375.284 281.702 374.384 280.054C374.066 279.46 373.32 279.241 372.73 279.568C372.138 279.89 371.919 280.629 372.243 281.221C372.46 281.624 394.155 321.46 396.529 331.554C397.785 336.893 397.534 350.931 397.294 364.505C397.077 376.748 396.853 389.404 397.726 396.102C397.936 397.703 398.168 399.369 398.404 401.067C400.128 413.392 402.272 428.732 396.491 432.105C389.313 436.29 372.427 441.034 366.211 439.888C363.171 439.336 352.797 436.349 346.999 421.133C342.29 408.766 340.98 367.861 340.98 363.61C340.98 362.483 342.99 359.097 344.458 356.626C347.381 351.702 348.729 349.273 347.497 347.899C346.498 346.784 344.785 347.566 344.136 347.859C341.302 349.146 338.688 351.251 336.781 352.787C336.322 353.156 335.806 353.571 335.353 353.914C335.382 353.805 335.409 353.689 335.445 353.562C335.97 351.634 336.56 349.928 337.032 348.558C338.06 345.59 338.625 343.953 337.664 342.853C337.143 342.257 336.334 342.067 335.249 342.284C332.049 342.923 330.307 342.672 329.03 341.397C327.385 339.636 298.472 292.824 296.416 282.835C294.107 271.61 294.307 259.148 296.867 255.052C299.852 250.274 303.482 245.426 303.52 245.376C303.923 244.836 303.813 244.072 303.274 243.669C302.737 243.267 301.972 243.372 301.565 243.914C301.529 243.962 297.84 248.892 294.798 253.761C291.448 259.121 291.901 272.994 294.029 283.326C296.157 293.671 325.497 341.313 327.305 343.121C329.664 345.48 332.721 345.27 335.679 344.684C335.549 345.381 335.117 346.631 334.725 347.76C334.24 349.163 333.636 350.914 333.09 352.917C332.66 354.495 332.334 356.095 333.452 356.826C334.674 357.62 335.961 356.577 338.308 354.687C340.215 353.151 342.592 351.238 345.143 350.077C345.194 350.056 345.238 350.035 345.284 350.016C344.745 351.35 343.352 353.703 342.356 355.38C339.979 359.381 338.538 361.931 338.538 363.61C338.538 364.031 339.486 408.264 344.72 422.001C350.971 438.411 362.415 441.679 365.771 442.292C366.544 442.431 367.44 442.496 368.436 442.496Z" fill="#1D191F"/>
<path d="M257.621 403.978C258.693 403.978 259.677 403.938 260.541 403.871C265.597 403.483 283.172 397.714 298.679 392.626C307.985 389.571 316.779 386.685 321.157 385.533C333.003 382.417 340.403 373.3 340.712 372.915C341.132 372.388 341.047 371.621 340.521 371.202C339.996 370.781 339.231 370.863 338.806 371.389C338.736 371.478 331.579 380.268 320.537 383.175C316.086 384.344 307.26 387.243 297.916 390.311C283.305 395.106 265.119 401.075 260.355 401.444C253.226 401.993 241.151 400.481 237.075 394.072C232.968 387.619 232.461 372.062 233.556 368.219L233.704 367.694C235.01 363.065 238.069 352.226 248.022 348.907C260.49 344.751 282.258 338.782 284.578 339.178C285.06 339.298 285.591 340.484 285.909 341.192C286.398 342.277 286.901 343.398 288.071 343.423C289.305 343.413 289.931 342.14 290.213 341.586C290.652 340.71 291.092 339.66 291.539 338.592C292.217 336.97 293.631 333.595 294.412 333.407C295.188 333.999 296.222 335.314 297.132 336.473C299.083 338.959 300.392 340.583 301.869 340.075C303.156 339.633 303.156 337.996 303.156 337.381C303.156 335.807 302.867 334.313 302.61 332.996C301.949 329.573 301.926 328.393 304.195 327.542C309.597 325.517 310.781 316.563 310.781 313.283C310.781 312.609 310.235 312.063 309.561 312.063C308.887 312.063 308.341 312.609 308.341 313.283C308.341 315.415 307.492 323.699 303.337 325.258C298.948 326.905 299.623 330.386 300.215 333.458C300.436 334.604 300.666 335.786 300.708 336.989C300.177 336.395 299.541 335.586 299.052 334.966C297.95 333.563 296.909 332.24 295.957 331.522C295.099 330.881 294.299 330.911 293.774 331.052C291.829 331.581 290.652 334.393 289.291 337.648C288.907 338.561 288.532 339.46 288.159 340.24C288.153 340.223 288.144 340.208 288.138 340.191C287.574 338.938 286.8 337.216 285.151 336.806C282.043 336.045 255.476 343.855 247.253 346.594C236.074 350.321 232.648 362.463 231.361 367.035L231.216 367.549C229.964 371.925 230.417 388.152 235.018 395.384C239.379 402.238 250.447 403.978 257.621 403.978Z" fill="#1D191F"/>
<path d="M94.7781 483.719C95.5176 483.719 95.9641 483.66 96.0653 483.643C96.731 483.54 97.1882 482.918 97.085 482.253C96.9818 481.587 96.3434 481.126 95.7008 481.233C95.5386 481.252 81.0478 482.992 68.1329 458.431C57.0593 437.358 56.541 431.018 56.6969 429.447C57.1141 429.731 57.6345 430.216 58.1127 430.66C59.2273 431.697 60.6156 432.986 62.4486 433.728C64.8799 434.705 91.0279 456.954 96.3793 480.298C96.5268 480.955 97.1757 481.372 97.8393 481.214C98.4967 481.065 98.9076 480.409 98.7559 479.754C93.1433 455.272 66.2262 432.618 63.3588 431.465C61.943 430.894 60.7905 429.82 59.7729 428.874C58.711 427.888 57.7945 427.034 56.6885 426.817C55.9721 426.68 55.2747 426.95 54.8239 427.557C51.9291 431.444 60.565 449.283 65.9733 459.566C77.6747 481.821 90.6824 483.719 94.7781 483.719Z" fill="#1D191F"/>
<path d="M92.9117 480.836C93.2593 480.836 93.6027 480.688 93.845 480.402C94.279 479.883 94.2117 479.114 93.6976 478.68C93.5312 478.541 77.0346 464.543 69.8881 449.357C69.6016 448.75 68.8726 448.489 68.2658 448.774C67.6548 449.06 67.3936 449.787 67.6823 450.396C75.0605 466.073 91.4326 479.963 92.1257 480.547C92.3554 480.743 92.6336 480.836 92.9117 480.836Z" fill="#1D191F"/>
<path d="M95.8021 451.422C95.8379 451.422 95.8717 451.42 95.9054 451.418C96.5775 451.363 97.0788 450.771 97.0198 450.103C95.3554 430.065 85.5839 409.411 67.9707 388.705C67.2312 387.837 66.7213 387.241 66.5127 386.942C66.1756 386.453 65.7797 385.699 65.3541 384.898C63.9278 382.214 62.7731 380.095 61.1024 380.569C59.6508 380.971 58.9934 382.713 59.4338 391.12C60.3187 408.036 71.803 440.588 72.2875 441.966C72.513 442.602 73.2169 442.937 73.8468 442.71C74.4831 442.482 74.8137 441.785 74.5904 441.151C74.4703 440.818 62.7373 407.553 61.8693 390.991C61.6544 386.876 61.7491 384.776 61.884 383.716C62.3369 384.426 62.8615 385.41 63.2007 386.046C63.6748 386.942 64.1277 387.787 64.507 388.332C64.7366 388.665 65.2951 389.329 66.1126 390.292C83.3887 410.597 92.9685 430.791 94.5887 450.305C94.6434 450.939 95.1763 451.422 95.8021 451.422Z" fill="#1D191F"/>
<path d="M95.1848 463.427C95.2965 463.427 95.4144 463.41 95.5281 463.376C96.1749 463.189 96.5459 462.51 96.3542 461.864C89.2478 437.559 72.6985 407.012 72.5321 406.704C72.2076 406.116 71.466 405.899 70.8761 406.215C70.2841 406.538 70.0648 407.277 70.3872 407.871C70.5536 408.175 86.9786 438.496 94.0133 462.55C94.1713 463.081 94.656 463.427 95.1848 463.427Z" fill="#1D191F"/>
<path d="M102.502 481.25C102.808 481.25 103.113 481.136 103.349 480.908C104.19 480.097 123.918 460.788 121.619 436.736C119.616 415.767 114.503 395.853 110.457 393.251C109.674 392.747 108.991 392.817 108.559 392.967C106.138 393.801 105.635 397.37 104.996 401.893C104.52 405.283 103.977 409.124 102.595 412.366C99.1942 420.358 91.0155 456.924 95.404 476.733C95.5494 477.39 96.1815 477.805 96.8599 477.66C97.5173 477.514 97.9322 476.861 97.7868 476.204C93.5036 456.882 101.512 421.139 104.839 413.325C106.347 409.783 106.914 405.772 107.413 402.235C107.809 399.424 108.3 395.961 109.217 395.343C111.477 396.782 116.953 413.557 119.19 436.97C121.377 459.861 101.855 478.96 101.657 479.149C101.171 479.617 101.156 480.39 101.623 480.875C101.864 481.125 102.182 481.25 102.502 481.25Z" fill="#1D191F"/>
<path d="M100.905 478.362C101.371 478.362 101.815 478.092 102.018 477.639C112.455 454.346 114.254 421.628 114.271 421.3C114.307 420.628 113.788 420.052 113.118 420.021C113.095 420.019 113.074 420.019 113.053 420.019C112.406 420.019 111.869 420.524 111.836 421.178C111.819 421.5 110.038 453.773 99.7906 476.645C99.5146 477.26 99.7906 477.982 100.406 478.256C100.57 478.328 100.739 478.362 100.905 478.362Z" fill="#1D191F"/>
<path d="M102.34 418.064C102.982 418.064 103.52 417.564 103.558 416.915C105.431 384.776 92.1069 357.035 85.7042 343.701C84.1683 340.507 82.959 337.985 82.5544 336.628C81.1408 331.89 79.3311 331.097 78.0944 331.257C76.2572 331.5 73.7648 333.714 73.3223 350.048C72.7703 370.649 78.7558 406.678 78.8147 407.041C78.9264 407.706 79.55 408.155 80.22 408.041C80.8815 407.93 81.3326 407.3 81.221 406.636C81.162 406.278 75.2121 370.476 75.762 350.116C76.1707 334.917 78.4313 333.678 78.4544 333.668C78.5619 333.752 79.3964 334.584 80.2138 337.323C80.6752 338.867 81.8614 341.339 83.5047 344.758C89.8168 357.903 102.957 385.262 101.124 416.772C101.084 417.444 101.598 418.024 102.27 418.062C102.294 418.064 102.317 418.064 102.34 418.064Z" fill="#1D191F"/>
<path d="M96.3817 446.21C96.9948 446.21 97.5237 445.748 97.5933 445.123C97.9957 441.467 96.6831 435.897 94.3003 425.786C93.0994 420.696 91.6054 414.358 89.9199 406.525C84.9984 383.695 82.1817 352.067 82.1543 351.751C82.0974 351.081 81.4926 350.595 80.8311 350.643C80.159 350.702 79.6639 351.294 79.7229 351.966C79.7524 352.282 82.5819 384.062 87.533 407.041C89.2248 414.896 90.7206 421.246 91.9257 426.346C94.2475 436.194 95.5264 441.617 95.1683 444.857C95.0945 445.527 95.579 446.13 96.2469 446.203C96.2912 446.208 96.3374 446.21 96.3817 446.21Z" fill="#1D191F"/>
<path d="M77.4852 489.825C78.0098 489.825 78.4945 489.484 78.6526 488.957C78.8485 488.315 78.4838 487.632 77.837 487.436C77.0175 487.187 76.1833 486.93 75.3511 486.669C75.4733 486.602 75.5849 486.522 75.6924 486.425C75.9642 486.176 76.3898 485.614 76.1854 484.649C75.9536 483.578 75.1404 482.352 74.3525 481.162C74.2703 481.04 74.1838 480.907 74.0932 480.768C78.6609 482.481 84.992 484.366 89.3658 482.477C89.9852 482.209 90.2696 481.49 90.0021 480.873C89.7324 480.254 89.0161 479.965 88.3988 480.237C84.2399 482.036 76.8763 479.219 74.4576 478.297C73.6044 477.968 72.0137 477.355 71.1667 478.419C70.3113 479.485 71.1541 480.753 72.3171 482.51C72.709 483.098 73.1599 483.783 73.4654 484.358C72.7723 484.196 71.8263 483.903 71.0615 483.665C69.039 483.033 66.7486 482.319 64.8251 482.319C64.8188 482.319 64.8104 482.319 64.802 482.319C63.4346 482.321 63.0511 482.972 62.9711 483.515C62.8046 484.655 62.6931 485.405 77.1313 489.772C77.2493 489.808 77.3693 489.825 77.4852 489.825Z" fill="#1D191F"/>
<path d="M106.604 480.523C106.791 480.523 106.985 480.479 107.166 480.384C107.371 480.277 112.242 477.702 116.148 473.488C118.131 471.348 119.607 470.821 120.258 471.011C120.524 471.087 120.688 471.316 120.753 471.685C120.922 472.633 121.512 472.989 121.847 473.111C123.006 473.55 124.15 472.627 125.471 471.559C125.574 471.479 125.685 471.388 125.803 471.293C125.789 471.441 125.778 471.588 125.766 471.725C125.551 474.182 125.224 477.896 127.866 479.107C128.471 479.388 129.204 479.124 129.484 478.509C129.767 477.896 129.499 477.171 128.886 476.891C127.807 476.396 128.052 473.604 128.197 471.936C128.357 470.115 128.46 468.912 127.455 468.339C126.358 467.718 125.235 468.615 123.941 469.656C123.655 469.888 123.256 470.206 122.917 470.45C122.544 469.574 121.845 468.929 120.949 468.668C119.864 468.35 117.587 468.341 114.355 471.828C110.746 475.728 106.081 478.195 106.035 478.22C105.437 478.534 105.205 479.272 105.521 479.868C105.738 480.285 106.162 480.523 106.604 480.523Z" fill="#1D191F"/>
<path d="M529.193 479.034C531.18 479.034 533.36 478.909 535.688 478.595C545.262 477.302 559.203 472.361 571.265 456.176C591.248 429.352 592.021 407.519 592.352 398.196C592.403 396.791 592.438 395.676 592.537 394.882C593.058 390.689 592.51 385.702 590.079 384.655C589.436 384.377 588.153 384.162 586.781 385.825C585.747 387.078 585.505 388.551 585.271 389.975C584.826 392.68 584.323 395.746 578.348 399.212C565.886 406.444 524.328 433.125 512.833 472.73C512.646 473.379 513.019 474.055 513.666 474.243C514.319 474.432 514.991 474.057 515.178 473.41C526.416 434.678 567.308 408.442 579.572 401.323C586.545 397.275 587.199 393.285 587.677 390.369C587.883 389.113 588.045 388.121 588.661 387.375C588.949 387.025 589.147 386.916 589.2 386.903C589.615 387.146 590.694 389.897 590.112 394.576C590.007 395.421 589.963 396.61 589.91 398.105C589.588 407.199 588.833 428.501 569.305 454.712C557.787 470.17 544.552 474.904 535.475 476.156C525.603 477.512 518.357 475.178 518.288 475.155C517.658 474.94 516.959 475.288 516.746 475.93C516.533 476.571 516.88 477.26 517.521 477.472C517.767 477.559 522.312 479.034 529.193 479.034Z" fill="#1D191F"/>
<path d="M517.637 474.744C517.706 474.744 517.776 474.74 517.843 474.728C518.627 474.595 537.258 471.258 557.33 453.35C577.423 435.42 583.429 411.044 583.488 410.802C583.644 410.147 583.24 409.489 582.585 409.331C581.925 409.188 581.27 409.58 581.114 410.235C581.057 410.471 575.209 434.129 555.703 451.529C536.19 468.94 517.618 472.29 517.43 472.322C516.765 472.435 516.32 473.067 516.434 473.729C516.539 474.325 517.055 474.744 517.637 474.744Z" fill="#1D191F"/>
<path d="M505.708 474.323C506.285 474.323 506.795 473.91 506.905 473.325C507.027 472.661 506.589 472.025 505.927 471.902C505.695 471.86 482.834 467.084 481.886 424.56C480.839 377.634 490.385 355.162 496.189 349.284C497.417 348.041 498.477 347.436 499.01 347.647C501.267 348.549 501.458 358.879 501.572 365.052C501.726 373.317 505.701 381.266 511.202 392.268C513.078 396.02 515.203 400.272 517.399 404.987C525.639 422.703 521.216 453.265 521.172 453.573C521.073 454.239 521.533 454.86 522.2 454.957C522.854 455.065 523.488 454.599 523.585 453.931C523.778 452.652 528.165 422.345 519.613 403.959C517.407 399.214 515.271 394.946 513.387 391.179C508.03 380.463 504.159 372.721 504.014 365.007C503.812 354.062 503.416 346.781 499.918 345.384C497.54 344.43 495.218 346.8 494.455 347.571C486.314 355.817 478.515 382.84 479.446 424.617C480.445 469.273 504.467 474.123 505.489 474.311C505.563 474.317 505.634 474.323 505.708 474.323Z" fill="#1D191F"/>
<path d="M534.173 485.187C534.188 485.187 534.203 485.187 534.216 485.187C541.406 484.938 541.653 483.662 541.788 482.977C541.956 482.1 541.406 481.373 540.151 480.817C537.837 479.787 536.179 479.884 534.591 479.966C533.293 480.038 532.062 480.105 530.324 479.566C527.096 478.567 526.595 477.352 526.591 477.341C526.443 476.684 525.778 476.317 525.143 476.458C524.486 476.606 524.084 477.299 524.231 477.956C524.324 478.367 525.015 480.478 529.604 481.896C531.763 482.564 533.343 482.475 534.723 482.404C535.678 482.349 536.499 482.307 537.435 482.488C536.455 482.612 535.279 482.707 534.131 482.745C533.459 482.768 532.933 483.333 532.954 484.007C532.979 484.667 533.518 485.187 534.173 485.187Z" fill="#1D191F"/>
<path d="M497.238 478.156C497.567 478.156 497.896 478.024 498.138 477.762C498.593 477.267 498.561 476.494 498.066 476.037C497.272 475.306 496.505 474.434 495.989 473.715C496.031 473.764 496.069 473.808 496.109 473.852C496.979 474.872 498.29 476.416 499.956 475.548C502.031 474.472 502.661 472.082 502.725 471.815C502.883 471.16 502.48 470.502 501.823 470.342C501.161 470.19 500.51 470.589 500.35 471.244C500.243 471.674 499.754 472.904 498.827 473.386C498.823 473.277 498.283 472.645 497.961 472.27C497.07 471.231 495.582 469.483 493.813 470.713C493.275 471.082 492.955 471.646 492.909 472.299C492.774 474.261 495.313 476.825 496.413 477.836C496.646 478.049 496.943 478.156 497.238 478.156Z" fill="#1D191F"/>
<path d="M505.853 468.977C506.022 468.977 506.193 468.941 506.357 468.87C506.97 468.592 507.244 467.869 506.968 467.254C506.778 466.834 488.044 424.565 494.013 373.891C494.095 373.221 493.615 372.616 492.945 372.538C492.292 372.431 491.67 372.939 491.592 373.607C485.537 424.978 504.549 467.833 504.743 468.261C504.945 468.71 505.388 468.977 505.853 468.977Z" fill="#1D191F"/>
<path d="M523.142 448.884C523.583 448.884 524.012 448.644 524.227 448.222C524.389 447.908 540.334 416.234 535.189 368.752C531.94 338.763 525.352 320.522 520.991 308.454C518.551 301.691 516.937 297.225 517.38 294.45C517.609 293.015 519.52 280.385 516.027 278.819C515.317 278.497 514.192 278.463 512.886 280.069C509.212 284.577 498.138 318.706 498.785 346.877C498.802 347.549 499.326 348.08 500.034 348.069C500.706 348.052 501.239 347.494 501.227 346.82C500.576 318.43 511.948 285.085 514.78 281.607C514.913 281.445 515.022 281.329 515.109 281.248C515.739 282.593 515.983 287.733 514.97 294.062C514.428 297.461 516.128 302.163 518.697 309.278C523.018 321.239 529.547 339.315 532.764 369.011C537.827 415.724 522.217 446.796 522.059 447.104C521.752 447.704 521.988 448.437 522.586 448.745C522.763 448.842 522.955 448.884 523.142 448.884Z" fill="#1D191F"/>
<path d="M522.744 421.491C523.401 421.491 523.944 420.968 523.963 420.307C523.976 419.881 524.227 409.604 520.253 387.417C516.309 365.409 511.824 312.624 511.78 312.093C511.723 311.421 511.12 310.949 510.463 310.981C509.791 311.037 509.294 311.627 509.351 312.297C509.395 312.828 513.891 365.727 517.854 387.845C521.777 409.737 521.528 420.132 521.526 420.233C521.507 420.907 522.036 421.468 522.71 421.489C522.72 421.491 522.733 421.491 522.744 421.491Z" fill="#1D191F"/>
<path d="M552.865 419.871C553.207 419.871 553.544 419.729 553.786 419.451C553.963 419.251 571.441 398.947 575.735 371.71C580.027 344.496 581.805 335.394 584.569 331.465C586.177 329.179 586.242 326.702 584.729 325.296C583.895 324.515 580.575 322.452 573.036 328.608C563.105 336.724 539.717 366.525 533.826 385.974C533.63 386.616 533.994 387.299 534.641 387.495C535.279 387.693 535.966 387.328 536.162 386.679C541.83 367.977 565.096 338.249 574.581 330.5C579.332 326.622 582.262 326.335 583.069 327.083C583.55 327.532 583.535 328.699 582.574 330.062C579.504 334.425 577.754 343.251 573.325 371.331C569.137 397.883 552.118 417.654 551.947 417.852C551.505 418.36 551.555 419.129 552.067 419.573C552.296 419.772 552.579 419.871 552.865 419.871Z" fill="#1D191F"/>
<path d="M525.984 442.167C526.334 442.167 526.684 442.018 526.924 441.727C527.023 441.605 537.222 429.286 550.733 409.64C564.354 389.833 571.627 354.278 571.93 352.774C572.063 352.115 571.635 351.47 570.976 351.337C570.314 351.204 569.672 351.632 569.539 352.292C569.465 352.654 562.06 388.866 548.723 408.258C535.28 427.805 525.148 440.046 525.047 440.168C524.615 440.684 524.686 441.455 525.207 441.887C525.432 442.073 525.706 442.167 525.984 442.167Z" fill="#1D191F"/>
<path d="M561.62 343.723C562.144 343.723 562.629 343.382 562.789 342.853C562.867 342.594 570.551 316.77 572.94 299.96C573.517 295.889 574.067 292.546 574.513 289.826C575.689 282.665 576.129 279.983 574.724 278.62C573.772 277.699 572.402 277.962 571.954 278.053C567.991 278.83 534.652 304.291 526.604 333.676C526.425 334.325 526.808 334.997 527.459 335.176C528.116 335.355 528.782 334.971 528.959 334.32C536.592 306.451 568.779 281.165 572.424 280.446C572.914 280.351 573.072 280.408 573.074 280.406C573.487 281.019 572.847 284.917 572.105 289.432C571.657 292.167 571.107 295.525 570.525 299.618C568.163 316.25 560.53 341.901 560.454 342.156C560.261 342.802 560.629 343.483 561.274 343.677C561.388 343.706 561.504 343.723 561.62 343.723Z" fill="#1D191F"/>
<path d="M534.774 380.167C535.351 380.167 535.863 379.754 535.973 379.166C535.994 379.044 538.32 366.78 547.79 352.999C557.572 338.763 563.494 306.982 563.741 305.637C563.863 304.972 563.425 304.337 562.761 304.215C562.091 304.108 561.463 304.536 561.341 305.195C561.282 305.522 555.267 337.811 545.778 351.619C535.994 365.862 533.664 378.212 533.569 378.73C533.449 379.392 533.889 380.03 534.55 380.15C534.626 380.159 534.7 380.167 534.774 380.167Z" fill="#1D191F"/>
<path d="M520.374 311.555C520.388 311.555 520.405 311.555 520.418 311.555C521.092 311.53 521.617 310.961 521.593 310.289C521.157 298.647 522.596 290.955 526.724 282.852L527.194 281.931C535.341 265.938 544.874 246.726 546.277 240.081C547.183 235.798 548.584 234.154 549.256 234.127C549.256 234.127 549.259 234.125 549.261 234.125C549.4 234.125 551.15 234.272 553.291 241.343C556.902 253.263 548.388 297.699 548.3 298.147C548.173 298.809 548.605 299.45 549.267 299.578C549.918 299.694 550.569 299.275 550.698 298.611C551.056 296.759 559.409 253.131 555.627 240.637C553.805 234.618 551.728 231.685 549.282 231.685C549.24 231.685 549.195 231.687 549.151 231.687C545.995 231.824 544.499 236.689 543.888 239.575C542.371 246.757 529.764 271.507 525.019 280.823L524.549 281.746C520.216 290.251 518.701 298.28 519.152 310.38C519.179 311.039 519.72 311.555 520.374 311.555Z" fill="#1D191F"/>
<path d="M529.1 331.08C529.732 331.08 530.265 330.593 530.316 329.953C530.326 329.797 531.504 314.331 532.663 304.475C533.792 294.863 545.355 276.468 545.473 276.283C545.833 275.714 545.66 274.96 545.091 274.6C544.533 274.244 543.774 274.406 543.408 274.981C542.919 275.754 531.432 294.035 530.24 304.188C529.075 314.097 527.891 329.611 527.878 329.765C527.828 330.437 528.331 331.023 529.003 331.076C529.037 331.08 529.071 331.08 529.1 331.08Z" fill="#1D191F"/>
</svg>
