<svg width="690" height="386" viewBox="0 0 690 386" fill="none" xmlns="http://www.w3.org/2000/svg">
<path d="M114.801 262.495C145.173 254.343 181.974 263.054 193.154 293.52C230.7 263.148 310.917 208.272 410.652 214.794C440.139 216.704 510.946 221.362 529.859 266.269C539.362 288.862 532.142 313.038 526.226 327.386C535.309 324.265 545.371 321.563 556.458 319.746C606.256 311.641 648.507 326.128 672.824 337.355H103.807C64.0713 338.659 36.4008 283.505 114.801 262.495Z" stroke="#2D2D34" stroke-width="2" stroke-miterlimit="10" stroke-linecap="round" stroke-linejoin="round"/>
<path d="M347.764 111.519C347.764 111.519 366.724 110.028 366.538 100.339C366.305 90.6492 359.597 89.997 359.597 89.997C359.597 89.997 380.466 63.2115 365.513 44.4384C350.559 25.6653 332.485 28.3671 332.485 28.3671C332.485 28.3671 335.047 7.54429 319.628 2.4667C304.256 -2.6109 293.402 7.12504 293.402 7.12504C293.402 7.12504 272.532 -10.3903 251.011 14.9045C241.88 27.3423 239.039 37.4509 229.629 36.3329C220.219 35.2149 204.753 37.3111 217.517 55.0128C230.328 72.7145 244.675 66.1463 252.408 66.0065C260.141 65.8668 321.538 100.991 321.538 100.991L347.764 111.519Z" fill="#2D2D34" stroke="#2D2D34" stroke-miterlimit="10" stroke-linecap="round" stroke-linejoin="round"/>
<path d="M442.888 221.782C442.888 218.847 424.767 145.431 378.789 136.58C332.811 127.73 289.395 139.096 277.982 160.617C266.569 182.139 259.861 336.796 259.861 336.796H462.686L442.888 221.782Z" fill="#FF4D4D" stroke="#2D2D34" stroke-width="2" stroke-miterlimit="10" stroke-linecap="round" stroke-linejoin="round"/>
<path d="M672.637 384.172H62.9998C54.7079 384.172 48 373.597 48 360.507C48 347.417 54.7079 336.843 62.9998 336.843H672.637C680.929 336.843 687.637 347.417 687.637 360.507C687.637 373.551 680.929 384.172 672.637 384.172Z" stroke="#2D2D34" stroke-width="3" stroke-miterlimit="10" stroke-linecap="round" stroke-linejoin="round"/>
<path d="M340.824 297.899C340.824 297.899 311.29 309.266 303.51 317.744C304.442 320.912 305.42 320.912 305.42 320.912L355.311 319.328L340.824 297.899Z" fill="white" stroke="#2D2D34" stroke-width="2" stroke-miterlimit="10" stroke-linecap="round" stroke-linejoin="round"/>
<path d="M442.422 285.881C442.422 285.881 368.215 271.952 329.41 299.39C360.202 336.098 360.202 336.098 360.202 336.098H492.22C492.22 336.098 526.785 323.846 510.76 292.216C494.735 260.586 457.329 182.419 443.26 166.115C429.192 149.811 411.77 143.056 389.829 139.981" fill="#FF4D4D"/>
<path d="M442.422 285.881C442.422 285.881 368.215 271.952 329.41 299.39C360.202 336.098 360.202 336.098 360.202 336.098H492.22C492.22 336.098 526.785 323.846 510.76 292.216C494.735 260.586 457.329 182.419 443.26 166.115C429.192 149.811 411.77 143.056 389.829 139.981" stroke="#2D2D34" stroke-width="2" stroke-miterlimit="10" stroke-linecap="round" stroke-linejoin="round"/>
<path d="M345.342 296.036C345.342 296.036 365.746 309.499 375.388 328.225" stroke="#2D2D34" stroke-width="3" stroke-miterlimit="10" stroke-linecap="round" stroke-linejoin="round" stroke-dasharray="12 12"/>
<path d="M309.845 319.328H379.441V334.095H309.845V319.328Z" fill="white" stroke="#2D2D34" stroke-width="2" stroke-miterlimit="10" stroke-linecap="round" stroke-linejoin="round"/>
<path d="M187.75 319.328H309.892V334.095H187.75V319.328Z" fill="white" stroke="#2D2D34" stroke-width="2" stroke-miterlimit="10" stroke-linecap="round" stroke-linejoin="round"/>
<path d="M293.029 230.213C266.336 315.834 192.781 295.151 171.725 271.812C155.235 253.552 114.661 160.757 114.661 160.757C111.726 153.211 143.496 139.748 148.946 148.646C148.946 148.646 170.887 176.503 185.514 204.313C200.141 232.17 224.039 240.322 239.225 212.745C254.411 185.214 279.473 158.056 280.218 157.124" fill="#FF4D4D"/>
<path d="M293.029 230.213C266.336 315.834 192.781 295.151 171.725 271.812C155.235 253.552 114.661 160.757 114.661 160.757C111.726 153.211 143.496 139.748 148.946 148.646C148.946 148.646 170.887 176.503 185.514 204.313C200.141 232.17 224.039 240.322 239.225 212.745C254.411 185.214 279.473 158.056 280.218 157.124" stroke="#2D2D34" stroke-width="2" stroke-miterlimit="10" stroke-linecap="round" stroke-linejoin="round"/>
<path d="M407.671 246.891C407.671 246.891 410.885 271.626 424.068 283.505" stroke="#2D2D34" stroke-width="2" stroke-miterlimit="10" stroke-linecap="round" stroke-linejoin="round"/>
<path d="M298.2 116.364C312.408 136.208 304.302 158.102 305.979 161.27C309.985 169.049 340.777 169.934 361.227 163.785C381.677 157.636 378.323 152.419 371.336 147.761C355.078 137.233 346.46 87.6682 346.041 86.5967C346.041 86.5967 343.525 79.0036 341.616 78.5844C345.389 71.4105 345.622 59.392 333.603 58.5535C321.585 57.715 318.417 70.8049 318.417 70.8049C318.417 70.8049 304.908 68.2894 300.995 48.4449C295.498 64.7491 282.035 67.9634 270.483 49.1436C262.75 36.8922 254.598 54.0349 251.989 61.9075C250.731 65.7274 249.66 110.727 287.486 115.758C325.311 120.836 333.743 93.1184 333.743 93.1184" fill="white"/>
<path d="M298.2 116.364C312.408 136.208 304.302 158.102 305.979 161.27C309.985 169.049 340.777 169.934 361.227 163.785C381.677 157.636 378.323 152.419 371.336 147.761C355.078 137.233 346.46 87.6682 346.041 86.5967C346.041 86.5967 343.525 79.0036 341.616 78.5844C345.389 71.4105 345.622 59.392 333.603 58.5535C321.585 57.715 318.417 70.8049 318.417 70.8049C318.417 70.8049 304.908 68.2894 300.995 48.4449C295.498 64.7491 282.035 67.9634 270.483 49.1436C262.75 36.8922 254.598 54.0349 251.989 61.9075C250.731 65.7274 249.66 110.727 287.486 115.758C325.311 120.836 333.743 93.1184 333.743 93.1184" stroke="#2D2D34" stroke-width="2" stroke-miterlimit="10" stroke-linecap="round" stroke-linejoin="round"/>
<path d="M319.581 110.354C319.581 110.354 309.147 123.77 301.46 121.627C298.199 116.363 298.199 116.363 298.199 116.363C298.199 116.363 312.407 115.292 319.581 110.354Z" fill="#2D2D34"/>
<path d="M620.79 311.874C620.79 311.874 614.082 299.343 616.411 293.334C618.74 287.325 624.097 288.862 623.818 288.023C623.538 287.185 615.386 271.3 626.566 266.455C637.746 261.657 639.19 254.39 634.998 249.732C630.805 245.073 636.022 229.142 643.988 227.512C651.954 225.881 655.448 223.692 655.028 218.847C654.609 214.049 677.249 194.018 682.746 201.285C688.242 208.552 684.656 215.679 679.857 218.707C675.059 221.735 671.566 232.822 680.277 238.179C688.988 243.536 684.609 275.353 663.46 285.228C642.311 295.104 639.376 311.828 639.376 311.828H620.79V311.874Z" fill="white" stroke="#2D2D34" stroke-width="2" stroke-miterlimit="10" stroke-linecap="round" stroke-linejoin="round"/>
<path d="M631.458 272.091C631.504 271.532 634.066 237.666 628.104 232.589C622.141 227.511 619.719 222.573 623.911 215.725C628.104 208.878 610.542 195.695 605.604 214.235C604.579 219.592 607.793 224.949 601.271 227.138C594.75 229.328 591.536 234.825 597.079 237.573C602.576 240.322 603.042 244.002 600.573 246.75C598.104 249.498 590.837 265.011 600.293 269.529C609.75 274.048 611.893 314.249 611.893 314.249H622.327C622.327 314.249 631.131 279.638 631.458 272.091Z" fill="#2D2D34"/>
<path d="M608.026 312.759C608.026 312.759 594.703 296.501 586.551 296.268C578.399 296.035 572.763 283.085 576.629 278.427C572.623 272.324 553.384 274.747 555.014 263.66C556.598 252.62 568.477 245.725 578.399 253.225C586.272 250.803 584.036 236.548 591.163 237.527C598.29 238.505 600.713 250.337 599.548 257.092C610.588 259.188 618.135 273.908 617.017 287.557" fill="white"/>
<path d="M608.026 312.759C608.026 312.759 594.703 296.501 586.551 296.268C578.399 296.035 572.763 283.085 576.629 278.427C572.623 272.324 553.384 274.747 555.014 263.66C556.598 252.62 568.477 245.725 578.399 253.225C586.272 250.803 584.036 236.548 591.163 237.527C598.29 238.505 600.713 250.337 599.548 257.092C610.588 259.188 618.135 273.908 617.017 287.557" stroke="#2D2D34" stroke-width="2" stroke-miterlimit="10" stroke-linecap="round" stroke-linejoin="round"/>
<path d="M642.405 301.44C642.405 301.44 642.638 299.53 639.749 292.775C636.861 286.021 642.032 278.707 650.51 280.384C651.255 274.98 657.544 272.791 662.715 275.073C667.886 277.356 666.442 267.48 675.712 268.086C684.982 268.691 683.864 280.943 679.904 286.719C686.892 284.437 687.218 289.235 687.218 289.235C689.361 302.837 676.504 305.446 665.696 301.02C654.889 296.595 646.83 311.362 646.83 311.362L636.349 310.617" fill="#2D2D34"/>
<path d="M612.684 311.408C612.824 307.774 615.899 285.461 603.554 285.973C598.244 286.439 599.548 293.52 599.548 293.52C599.548 293.52 599.688 283.271 594.237 284.855C588.787 286.439 589.346 291.983 592.514 296.268C582.219 303.582 591.116 305.026 591.116 305.026L598.383 312.06L612.684 311.408Z" fill="#2D2D34"/>
<path d="M651.908 322.123L650.883 324.359H646.225C646.597 323.613 646.923 322.868 647.296 322.123H651.908Z" fill="#2D2D34"/>
<path d="M593.166 322.123H647.296C646.97 322.868 646.597 323.613 646.225 324.359H594.377L593.166 322.123Z" fill="white" stroke="#2D2D34" stroke-width="2" stroke-miterlimit="10" stroke-linecap="round" stroke-linejoin="round"/>
<path d="M641.939 346.579C641.939 346.579 652.932 350.026 638.305 351.377C623.678 352.728 602.156 350.771 602.156 350.771C602.156 350.771 597.265 348.256 602.762 347.743C608.305 347.231 634.858 345.647 642.358 346.579" fill="#2D2D34"/>
<path d="M594.424 324.358L608.678 350.026H639.19L650.883 324.358H594.424Z" fill="white" stroke="#2D2D34" stroke-width="2" stroke-miterlimit="10" stroke-linecap="round" stroke-linejoin="round"/>
<path d="M588.042 309.358H657.171V322.169H588.042V309.358Z" fill="white" stroke="#2D2D34" stroke-width="2" stroke-miterlimit="10" stroke-linecap="round" stroke-linejoin="round"/>
<path d="M301.041 315.973C301.041 315.135 265.917 242.045 265.917 242.045H144.195L187.797 315.973H301.041Z" fill="white" stroke="#2D2D34" stroke-width="2" stroke-miterlimit="10" stroke-linecap="round" stroke-linejoin="round"/>
<path d="M274.675 243.396L265.871 242.045L301.041 315.973H311.988L274.675 243.396Z" fill="#2D2D34"/>
<path d="M187.704 334.095H379.441V336.797H187.704V334.095Z" fill="#2D2D34"/>
<path d="M218.822 285.741C214.551 285.741 211.089 282.279 211.089 278.008C211.089 273.737 214.551 270.275 218.822 270.275C223.092 270.275 226.554 273.737 226.554 278.008C226.554 282.279 223.092 285.741 218.822 285.741Z" fill="#2D2D34"/>
<path d="M330.948 183.024C330.948 183.024 323.96 194.763 324.333 217.683" stroke="#2D2D34" stroke-width="2" stroke-miterlimit="10" stroke-linecap="round" stroke-linejoin="round"/>
<path d="M148.341 152.233C148.341 152.233 150.67 162.714 135.903 166.161C121.136 169.655 117.316 163.739 117.13 162.155C116.943 160.571 117.875 152.698 129.754 149.95C141.586 147.248 146.99 147.202 148.341 152.233Z" fill="#2D2D34"/>
<path d="M144.148 156.006C144.148 156.006 146.524 135.556 138.232 131.969C129.94 128.382 111.4 133.879 104.413 128.615C97.425 123.351 83.7295 107.326 75.9501 109.842C68.1706 112.357 85.2202 125.82 89.04 132.807C92.8133 139.795 98.1238 151.813 106.136 152.652C114.149 153.49 121.089 159.826 122.999 164.437C133.853 167.279 145.22 160.711 144.148 156.006Z" fill="white" stroke="#2D2D34" stroke-width="2" stroke-miterlimit="10" stroke-linecap="round" stroke-linejoin="round"/>
<path d="M65.1427 336.61H101.664C104.878 336.61 107.534 334.001 107.534 330.741C107.534 327.526 104.925 324.871 101.664 324.871H65.1427C61.9284 324.871 59.2731 327.48 59.2731 330.741C59.2731 334.001 61.8818 336.61 65.1427 336.61Z" fill="#2D2D34"/>
<path d="M61.6958 298.504V310.057C61.6958 313.923 62.7206 317.51 64.4442 320.632C65.5156 322.588 66.9131 324.312 68.5435 325.849C72.41 329.482 77.6273 331.718 83.4037 331.718C95.3756 331.718 105.065 322.029 105.065 310.057V298.504H61.6958Z" fill="white" stroke="#2D2D34" stroke-width="2" stroke-miterlimit="10" stroke-linecap="round" stroke-linejoin="round"/>
<path d="M50.6086 302.091C51.1211 301.579 51.8198 301.299 52.5186 301.346C52.5186 301.346 52.9844 301.346 53.7763 301.346C55.4533 301.392 58.621 301.439 61.6955 301.439V306.75C59.3198 306.703 56.8974 306.703 55.1273 306.656V319.374C56.7577 319.886 59.7856 320.585 64.444 320.631C65.5154 322.588 66.9129 324.311 68.5433 325.849C67.2855 325.942 66.1209 325.942 65.0029 325.942C55.9658 325.942 51.5869 323.752 51.2608 323.52C50.4223 323.054 49.8633 322.169 49.8633 321.19V303.955C49.8167 303.256 50.1428 302.604 50.6086 302.091Z" fill="white" stroke="#2D2D34" stroke-width="2" stroke-miterlimit="10" stroke-linecap="round" stroke-linejoin="round"/>
<path d="M508.99 336.797C508.99 336.797 550.169 343.132 507.313 342.806C464.456 342.48 379.488 338.38 379.488 338.38V336.051L508.99 336.797Z" fill="#2D2D34"/>
<path d="M155.61 102.373L1 102.373L1 87L155.61 87L155.61 102.373Z" stroke="#2D2D34" stroke-width="2" stroke-miterlimit="10" stroke-linecap="round" stroke-linejoin="round"/>
<path d="M68.5682 283.137C64.9407 283.137 62 280.196 62 276.568C62 272.941 64.9407 270 68.5682 270C72.1958 270 75.1365 272.941 75.1365 276.568C75.1365 280.196 72.1958 283.137 68.5682 283.137Z" fill="#2D2D34"/>
<path d="M55.4938 253.988C53.5642 253.988 52 252.423 52 250.494C52 248.564 53.5642 247 55.4938 247C57.4233 247 58.9875 248.564 58.9875 250.494C58.9875 252.423 57.4233 253.988 55.4938 253.988Z" stroke="#2D2D34" stroke-width="2" stroke-miterlimit="10" stroke-linecap="round" stroke-linejoin="round"/>
<path d="M387.454 225.043C387.454 225.043 357.547 223.971 348.277 221.316C346.6 256.533 354.938 262.403 354.938 262.403H381.491C381.491 262.403 388.618 244.934 387.454 225.043Z" stroke="#2D2D34" stroke-width="2" stroke-miterlimit="10" stroke-linecap="round" stroke-linejoin="round"/>
<path d="M383.401 233.288L387.453 225.043L348.277 221.316L352.656 230.307L383.401 233.288Z" fill="white" stroke="#2D2D34" stroke-width="2" stroke-miterlimit="10" stroke-linecap="round" stroke-linejoin="round"/>
<path d="M381.305 149.717C381.305 149.717 385.451 126.006 361.413 133.646C358.479 134.578 365.42 137.559 364.022 141.658C362.625 145.711 347.811 165.09 342.64 166.86C335.886 170.214 348.976 177.201 360.854 173.055C372.733 168.91 383.913 155.167 381.305 149.717Z" fill="#FF4D4D" stroke="#2D2D34" stroke-width="2" stroke-miterlimit="10" stroke-linecap="round" stroke-linejoin="round"/>
<path d="M327.64 170.028C326.01 160.292 315.016 166.72 310.451 156.332C307.609 149.811 306.864 144.5 306.584 139.609C306.491 137.839 302.392 140.494 299.644 141.985C292.377 146.037 294.24 162.109 299.224 166.441C304.209 170.773 329.317 179.764 327.64 170.028Z" fill="#FF4D4D" stroke="#2D2D34" stroke-width="2" stroke-miterlimit="10" stroke-linecap="round" stroke-linejoin="round"/>
<path d="M155.981 160.245C155.981 160.245 149.878 178.599 127.658 174.08" stroke="#2D2D34" stroke-width="3" stroke-miterlimit="10" stroke-linecap="round" stroke-linejoin="round" stroke-dasharray="12 12"/>
<path d="M155.591 88.2986L155.755 66.6888C155.809 59.4565 152.207 52.7192 146.108 46.8346C142.316 43.1459 137.359 39.8842 131.569 36.9647C117.839 30.0637 99.2729 25.7404 78.6828 25.5846C36.0084 25.2615 1.33309 43.1245 1.16358 65.5186L1 87.1284L78.2956 87.7135L155.591 88.2986Z" fill="#FF4D4D" stroke="#11141B" stroke-width="2" stroke-miterlimit="10" stroke-linecap="round" stroke-linejoin="round"/>
</svg>
